<?xml version="1.0" encoding="utf-8"?>
<svg viewBox="0 0 500 500" xmlns="http://www.w3.org/2000/svg" xmlns:bx="https://boxy-svg.com">
  <defs>
    <linearGradient gradientUnits="userSpaceOnUse" x1="255.992" y1="80.454" x2="255.992" y2="269.402" id="gradient-0">
      <stop offset="0" style="stop-color: rgba(119, 119, 119, 1)"/>
      <stop offset="1" style="stop-color: rgba(68, 68, 68, 1)"/>
    </linearGradient>
    <linearGradient gradientUnits="userSpaceOnUse" x1="531.02" y1="-128.959" x2="531.02" y2="217.757" id="gradient-1" gradientTransform="matrix(0.66143, 0.750006, -0.83147, 0.733272, 155.804032, -387.717511)">
      <stop offset="0" style="stop-color: rgb(102, 102, 102);"/>
      <stop offset="1" style="stop-color: rgba(242, 215, 83, 1)"/>
    </linearGradient>
    <style bx:fonts="Roboto Flex">@import url(https://fonts.googleapis.com/css2?family=Roboto+Flex%3Aital%2Cwght%400%2C400&amp;display=swap);</style>
  </defs>
  <g id="SVGRepo_iconCarrier" transform="matrix(0.955189, 0, 0, 0.955189, -32.653145, 43.956615)">
    <polygon style="fill: rgb(41, 41, 41); stroke: rgb(255, 255, 255);" points="73.13800048828125 194.3260040283203 73.092 374.326 255.99200439453125 469.32598876953125 438.8919982910156 374.32598876953125 438.84600830078125 194.3260040283203"/>
    <polygon style="fill: rgb(41, 41, 41); stroke: rgb(255, 255, 255);" points="255.992 469.326 438.892 374.326 438.42 173.156 255.992 194.326"/>
    <polygon style="stroke: rgb(255, 255, 255); fill: rgb(119, 119, 119);" points="255.992 80.426 73.138 174.892 40.018 342.737 222.918 437.137 255.992 269.374 438.846 174.892"/>
    <polygon style="fill-rule: nonzero; stroke: rgb(255, 255, 255); fill: url(#gradient-0);" points="255.992,80.454 73.138,174.92 255.992,269.402 438.846,174.92 "/>
    <text style="fill: rgb(41, 41, 41); font-family: Arial, sans-serif; font-size: 18.7px; stroke: rgb(255, 255, 255); white-space: pre;" x="80.49" y="252.881"> </text>
  </g>
  <g style="" transform="matrix(0.64239, -0.333625, 0, 0.64239, 113.75795, 181.720749)">
    <path d="M 293.635 316.926 C 293.635 299.22 274.468 288.155 259.135 297.008 C 248.581 303.101 244.612 316.368 250.085 327.256 C 247.333 325.723 244.235 324.921 241.085 324.926 C 230.085 324.926 221.085 334.776 221.085 346.926 C 221.04 352.633 223.109 358.154 226.895 362.426 C 225.498 362.1 224.069 361.932 222.635 361.926 C 209.935 361.926 199.635 374.466 199.635 389.926 C 199.635 405.386 209.935 417.926 222.635 417.926 C 224.086 417.923 225.532 417.755 226.945 417.426 C 223.159 421.697 221.09 427.218 221.135 432.926 C 221.135 445.076 230.135 454.926 241.135 454.926 C 244.285 454.93 247.383 454.128 250.135 452.596 C 242.108 468.377 254.174 486.93 271.855 485.991 C 284.104 485.341 293.687 475.192 293.635 462.926 C 293.635 462.586 293.635 462.256 293.635 461.926 L 293.635 317.926 C 293.635 317.596 293.635 317.266 293.635 316.926 Z" fill="none" stroke-linejoin="bevel" stroke-width="8" style="stroke: rgb(255, 255, 255);"/>
    <path d="M 254.895 479.186 C 267.416 491.706 288.796 485.978 293.378 468.874 C 295.505 460.936 293.236 452.466 287.425 446.656 L 274.535 446.656" fill="none" stroke-miterlimit="10" stroke-width="8" style="stroke: rgb(255, 255, 255);"/>
    <path d="M 253.895 300.666 C 266.548 288.28 287.863 294.237 292.262 311.387 C 294.26 319.174 292.047 327.439 286.425 333.186 L 275.305 333.186" fill="none" stroke-miterlimit="10" stroke-width="8" style="stroke: rgb(255, 255, 255);"/>
    <polyline points="293.635 384.926 268.635 384.926 236.885 414.686" fill="none" stroke-miterlimit="10" stroke-width="8" style="stroke: rgb(255, 255, 255);"/>
    <line x1="232.605" y1="376.576" x2="250.085" y2="401.366" fill="none" stroke-miterlimit="10" stroke-width="8" style="stroke: rgb(255, 255, 255);"/>
    <line x1="250.085" y1="452.596" x2="262.135" y2="435.926" fill="none" stroke-miterlimit="10" stroke-width="8" style="stroke: rgb(255, 255, 255);"/>
    <polyline points="250.085 327.416 258.635 340.926 258.635 360.926" fill="none" stroke-miterlimit="10" stroke-width="8" style="stroke: rgb(255, 255, 255);"/>
    <line x1="339.635" y1="389.926" x2="291.635" y2="389.926" fill="none" stroke-miterlimit="10" stroke-width="8" style="stroke: rgb(255, 255, 255);"/>
    <polyline points="294.635 420.926 318.635 420.926 330.635 442.596" fill="none" stroke-miterlimit="10" stroke-width="8" style="stroke: rgb(255, 255, 255);"/>
    <polyline points="294.635 359.926 318.635 359.926 330.635 338.256" fill="none" stroke-miterlimit="10" stroke-width="8" style="stroke: rgb(255, 255, 255);"/>
    <circle cx="358.635" cy="389.926" r="16" fill="none" stroke-miterlimit="10" stroke-width="8" style="stroke: rgb(255, 255, 255);"/>
    <circle cx="336.635" cy="459.926" r="16" fill="none" stroke-miterlimit="10" stroke-width="8" style="stroke: rgb(255, 255, 255);"/>
    <circle cx="336.635" cy="319.926" r="16" fill="none" stroke-miterlimit="10" stroke-width="8" style="stroke: rgb(255, 255, 255);"/>
  </g>
  <text style="fill: rgb(255, 255, 255); font-family: &quot;Roboto Flex&quot;; font-size: 33.6124px; font-weight: 700; line-height: 35.3815px; white-space: pre;" transform="matrix(0.974426, -0.513873, 0, 0.974426, -52.893776, 201.603836)" x="276.911" y="432.444">ML MODEL</text>
  <g transform="matrix(-0.57797, -0.101912, 0.101912, -0.57797, 497.565094, 272.780884)">
    <polygon style="fill: url(#gradient-1); fill-opacity: 0.49;" points="784.714 -31.189 371.578 217.757 277.327 123.507 468.302 -128.959"/>
    <path style="fill:#2D2E30;" d="M 273.114 328.477 C 276.018 331.381 277.248 335.564 276.378 339.578 C 275.507 343.592 272.656 346.889 268.81 348.33 L 179.148 381.904 L 160.533 363.289 L 234.23 289.592 L 273.114 328.477 Z"/>
    <path style="fill:#E1E1E3;" d="M 362.404 208.843 L 156.78 414.467 C 146.111 425.136 128.812 425.136 118.142 414.467 L 81.316 377.639 C 70.647 366.97 70.647 349.671 81.316 339.001 L 286.94 133.378 L 362.404 208.843 Z"/>
    <path style="fill:#F7DC4D;" d="M 353.989 233.82 C 361.423 223.124 365.792 210.139 365.792 196.127 C 365.792 159.6 336.181 129.989 299.654 129.989 C 285.642 129.989 272.657 134.358 261.961 141.792 C 292.637 172.469 323.313 203.144 353.989 233.82 Z"/>
    <path style="fill:#9B0700;" d="M 333.005 256.723 L 314.244 275.485 C 309.136 280.593 300.854 280.593 295.745 275.485 L 220.297 200.037 C 215.189 194.929 215.189 186.647 220.297 181.538 L 239.059 162.776 C 244.167 157.668 252.449 157.668 257.558 162.776 L 333.006 238.224 C 338.114 243.332 338.114 251.614 333.005 256.723 Z"/>
    <path style="fill:#DE3205;" d="M 371.455 240.836 L 348.189 264.102 C 341.854 270.437 331.583 270.437 325.247 264.102 L 231.68 170.535 C 225.345 164.2 225.345 153.929 231.68 147.593 L 254.946 124.327 C 261.281 117.992 271.552 117.992 277.888 124.327 L 371.455 217.894 C 377.79 224.229 377.79 234.5 371.455 240.836 Z"/>
    <rect x="166.686" y="281.428" transform="matrix(-0.707107, 0.707107, -0.707107, -0.707107, 612.719604, 356.724365)" style="fill:#9E9E9E;" width="21.653" height="106.863"/>
  </g>
</svg>