<?xml version="1.0" encoding="utf-8"?>
<svg viewBox="0 0 500 500" xmlns="http://www.w3.org/2000/svg">
  <defs>
    <radialGradient gradientUnits="userSpaceOnUse" cx="373.779" cy="164.716" r="133.357" id="gradient-2" gradientTransform="matrix(-0.112703, -0.592595, 0.670932, -0.617295, 168.710926, 618.813474)">
      <stop offset="0" style="stop-color: rgb(249, 237, 178);"/>
      <stop offset="0.97" style="stop-color: rgb(119, 119, 119);"/>
    </radialGradient>
    <linearGradient gradientUnits="userSpaceOnUse" x1="162.874" y1="265.441" x2="162.874" y2="415.664" id="gradient-1" gradientTransform="matrix(0.72328, 0.690555, -0.535413, 0.560787, 214.728942, 43.355008)">
      <stop offset="0" style="stop-color: rgb(119, 119, 119);"/>
      <stop offset="1" style="stop-color: rgb(249, 237, 178);"/>
    </linearGradient>
  </defs>
  <g id="SVGRepo_iconCarrier" transform="matrix(1.032388, 0.325823, 0, 0.970815, -65.405077, -113.025531)" style="">
    <polygon style="fill: rgb(41, 41, 41); stroke: rgb(255, 255, 255);" points="172.132 219.641 172.1320037841797 407.11199951171875 255.9429931640625 469.3429870605469 438.8429870605469 374.3429870605469 438.7969970703125 194.34300231933594"/>
    <polygon style="fill: rgb(41, 41, 41); stroke: rgb(255, 255, 255);" points="255.992 469.326 438.892 374.326 438.42 173.156 255.992 194.326"/>
    <polygon style="stroke: rgb(255, 255, 255); fill: rgb(119, 119, 119);" points="172.1320037841797 219.64100646972656 122.37699890136719 358.95599365234375 206.141 408.769 255.99200439453125 269.3739929199219"/>
    <polygon style="fill-rule: nonzero; stroke: rgb(255, 255, 255); fill: url(#gradient-2);" points="347.4219970703125 127.7229995727539 172.132 219.641 255.99200439453125 269.4020080566406 438.84600830078125 174.9199981689453"/>
    <path style="fill: rgb(41, 41, 41); stroke: rgb(255, 255, 255); white-space: pre;"/>
  </g>
  <path style="fill: rgb(216, 216, 216); stroke: rgb(255, 255, 255);" d="M 293.292 124.163 L 293.333 215.984"/>
  <g style="" transform="matrix(0.703672, -0.117004, 0, 0.652899, 93.852626, 77.254076)">
    <path d="M 293.635 316.926 C 293.635 299.22 274.468 288.155 259.135 297.008 C 248.581 303.101 244.612 316.368 250.085 327.256 C 247.333 325.723 244.235 324.921 241.085 324.926 C 230.085 324.926 221.085 334.776 221.085 346.926 C 221.04 352.633 223.109 358.154 226.895 362.426 C 225.498 362.1 224.069 361.932 222.635 361.926 C 209.935 361.926 199.635 374.466 199.635 389.926 C 199.635 405.386 209.935 417.926 222.635 417.926 C 224.086 417.923 225.532 417.755 226.945 417.426 C 223.159 421.697 221.09 427.218 221.135 432.926 C 221.135 445.076 230.135 454.926 241.135 454.926 C 244.285 454.93 247.383 454.128 250.135 452.596 C 242.108 468.377 254.174 486.93 271.855 485.991 C 284.104 485.341 293.687 475.192 293.635 462.926 C 293.635 462.586 293.635 462.256 293.635 461.926 L 293.635 317.926 C 293.635 317.596 293.635 317.266 293.635 316.926 Z" fill="none" stroke-linejoin="bevel" stroke-width="8" style="stroke: rgb(255, 255, 255);"/>
    <path d="M 254.895 479.186 C 267.416 491.706 288.796 485.978 293.378 468.874 C 295.505 460.936 293.236 452.466 287.425 446.656 L 274.535 446.656" fill="none" stroke-miterlimit="10" stroke-width="8" style="stroke: rgb(255, 255, 255);"/>
    <path d="M 253.895 300.666 C 266.548 288.28 287.863 294.237 292.262 311.387 C 294.26 319.174 292.047 327.439 286.425 333.186 L 275.305 333.186" fill="none" stroke-miterlimit="10" stroke-width="8" style="stroke: rgb(255, 255, 255);"/>
    <polyline points="293.635 384.926 268.635 384.926 236.885 414.686" fill="none" stroke-miterlimit="10" stroke-width="8" style="stroke: rgb(255, 255, 255);"/>
    <line x1="232.605" y1="376.576" x2="250.085" y2="401.366" fill="none" stroke-miterlimit="10" stroke-width="8" style="stroke: rgb(255, 255, 255);"/>
    <line x1="250.085" y1="452.596" x2="262.135" y2="435.926" fill="none" stroke-miterlimit="10" stroke-width="8" style="stroke: rgb(255, 255, 255);"/>
    <polyline points="250.085 327.416 258.635 340.926 258.635 360.926" fill="none" stroke-miterlimit="10" stroke-width="8" style="stroke: rgb(255, 255, 255);"/>
    <line x1="339.635" y1="389.926" x2="291.635" y2="389.926" fill="none" stroke-miterlimit="10" stroke-width="8" style="stroke: rgb(255, 255, 255);"/>
    <polyline points="294.635 420.926 318.635 420.926 330.635 442.596" fill="none" stroke-miterlimit="10" stroke-width="8" style="stroke: rgb(255, 255, 255);"/>
    <polyline points="294.635 359.926 318.635 359.926 330.635 338.256" fill="none" stroke-miterlimit="10" stroke-width="8" style="stroke: rgb(255, 255, 255);"/>
    <circle cx="358.635" cy="389.926" r="16" fill="none" stroke-miterlimit="10" stroke-width="8" style="stroke: rgb(255, 255, 255);"/>
    <circle cx="336.635" cy="459.926" r="16" fill="none" stroke-miterlimit="10" stroke-width="8" style="stroke: rgb(255, 255, 255);"/>
    <circle cx="336.635" cy="319.926" r="16" fill="none" stroke-miterlimit="10" stroke-width="8" style="stroke: rgb(255, 255, 255);"/>
  </g>
  <path d="M 279.701 432.444 L 282.688 432.444 L 282.688 415.211 Q 282.688 414.719 282.672 414.103 Q 282.655 413.488 282.59 412.995 L 282.721 412.995 Q 282.819 413.488 283.016 414.103 Q 283.213 414.719 283.41 415.211 L 290.205 432.444 L 292.929 432.444 L 299.724 415.211 Q 299.921 414.719 300.118 414.103 Q 300.315 413.488 300.413 412.995 L 300.545 412.995 Q 300.479 413.488 300.463 414.103 Q 300.446 414.719 300.446 415.211 L 300.446 432.444 L 303.499 432.444 L 303.499 408.548 L 299.429 408.548 L 292.339 426.519 Q 292.142 427.012 291.969 427.545 Q 291.797 428.078 291.666 428.571 L 291.534 428.571 Q 291.403 428.078 291.231 427.545 Q 291.058 427.012 290.861 426.519 L 283.771 408.548 L 279.701 408.548 Z" transform="matrix(1.068805, -0.177023, -0.007779, 0.990334, -88.937233, 36.831474)" style="fill: rgb(255, 255, 255); line-height: 35.3815px; white-space: pre;"/>
  <path d="M 309.067 432.444 L 323.543 432.444 L 323.543 429.851 L 312.218 429.851 L 312.218 408.548 L 309.067 408.548 Z" transform="matrix(1.068805, -0.177023, -0.007779, 0.990334, -88.937233, 36.831474)" style="fill: rgb(255, 255, 255); line-height: 35.3815px; white-space: pre;"/>
  <path d="M 335.422 432.444 L 338.409 432.444 L 338.409 415.211 Q 338.409 414.719 338.393 414.103 Q 338.376 413.488 338.311 412.995 L 338.442 412.995 Q 338.541 413.488 338.737 414.103 Q 338.934 414.719 339.131 415.211 L 345.926 432.444 L 348.651 432.444 L 355.445 415.211 Q 355.642 414.719 355.839 414.103 Q 356.036 413.488 356.135 412.995 L 356.266 412.995 Q 356.2 413.488 356.184 414.103 Q 356.167 414.719 356.167 415.211 L 356.167 432.444 L 359.22 432.444 L 359.22 408.548 L 355.15 408.548 L 348.06 426.519 Q 347.863 427.012 347.69 427.545 Q 347.518 428.078 347.387 428.571 L 347.255 428.571 Q 347.124 428.078 346.952 427.545 Q 346.78 427.012 346.583 426.519 L 339.492 408.548 L 335.422 408.548 Z" transform="matrix(1.068805, -0.177023, -0.007779, 0.990334, -88.937233, 36.831474)" style="fill: rgb(255, 255, 255); line-height: 35.3815px; white-space: pre;"/>
  <path d="M 363.896 421.251 Q 363.896 426.765 366.727 429.851 Q 369.558 432.936 373.989 432.936 Q 378.42 432.936 381.252 429.851 Q 384.083 426.765 384.083 421.251 L 384.083 419.741 Q 384.083 414.226 381.252 411.141 Q 378.42 408.055 373.989 408.055 Q 369.558 408.055 366.727 411.141 Q 363.896 414.226 363.896 419.741 Z M 367.08 421.251 L 367.08 419.741 Q 367.08 415.539 368.975 413.143 Q 370.871 410.747 373.989 410.747 Q 377.107 410.747 379.003 413.143 Q 380.899 415.539 380.899 419.741 L 380.899 421.251 Q 380.899 425.452 379.003 427.849 Q 377.107 430.245 373.989 430.245 Q 370.871 430.245 368.975 427.849 Q 367.08 425.452 367.08 421.251 Z" transform="matrix(1.068805, -0.177023, -0.007779, 0.990334, -88.937233, 36.831474)" style="fill: rgb(255, 255, 255); line-height: 35.3815px; white-space: pre;"/>
  <path d="M 388.755 432.444 L 395.845 432.444 Q 400.44 432.444 403.501 429.408 Q 406.562 426.371 406.562 421.251 L 406.562 419.741 Q 406.562 414.62 403.501 411.584 Q 400.44 408.548 395.845 408.548 L 388.755 408.548 Z M 391.906 429.851 L 391.906 411.141 L 395.845 411.141 Q 399.291 411.141 401.335 413.422 Q 403.378 415.703 403.378 419.741 L 403.378 421.251 Q 403.378 425.288 401.335 427.57 Q 399.291 429.851 395.845 429.851 Z" transform="matrix(1.068805, -0.177023, -0.007779, 0.990334, -88.937233, 36.831474)" style="fill: rgb(255, 255, 255); line-height: 35.3815px; white-space: pre;"/>
  <path d="M 411.236 432.444 L 426.401 432.444 L 426.401 429.851 L 414.387 429.851 L 414.387 421.415 L 424.727 421.415 L 424.727 418.822 L 414.387 418.822 L 414.387 411.141 L 426.237 411.141 L 426.237 408.548 L 411.236 408.548 Z" transform="matrix(1.068805, -0.177023, -0.007779, 0.990334, -88.937233, 36.831474)" style="fill: rgb(255, 255, 255); line-height: 35.3815px; white-space: pre;"/>
  <path d="M 430.305 432.444 L 444.78 432.444 L 444.78 429.851 L 433.456 429.851 L 433.456 408.548 L 430.305 408.548 Z" transform="matrix(1.068805, -0.177023, -0.007779, 0.990334, -88.937233, 36.831474)" style="fill: rgb(255, 255, 255); line-height: 35.3815px; white-space: pre;"/>
  <g transform="matrix(0.771742, 0.16404, -0.16404, 0.771742, 229.145271, -128.453007)">
    <path style="fill: url(#gradient-1); fill-opacity: 0.85;" transform="matrix(-1, 0, 0, -1, 325.748991, 681.105006)" d="M 243.437 340.435 L 133.859 415.664 L 87.763 369.569 L 156.188 271.623 L 243.437 340.435 Z"/>
    <path style="fill: rgb(41, 41, 41);" d="M 293.377 204.179 C 294.797 205.599 295.398 207.645 294.973 209.608 C 294.547 211.571 293.153 213.184 291.272 213.889 L 247.42 230.309 L 238.316 221.205 L 274.359 185.161 L 293.377 204.179 Z" transform="matrix(-1, 0, 0, -1, 533.422949, 415.469997)"/>
    <path style="fill: rgb(119, 119, 119); stroke: rgb(255, 255, 255);" d="M 337.763 202.23 L 237.198 302.795 C 231.98 308.013 223.519 308.013 218.301 302.795 L 200.29 284.784 C 195.072 279.566 195.072 271.105 200.29 265.887 L 300.855 165.322 L 337.763 202.23 Z" transform="matrix(-1, 0, 0, -1, 534.139479, 472.030505)"/>
    <path style="fill: rgb(247, 220, 77); stroke: rgb(255, 255, 255);" d="M 239.729 308.366 C 243.364 303.135 245.501 296.785 245.501 289.932 C 245.501 272.067 231.019 257.585 213.155 257.585 C 206.302 257.585 199.951 259.722 194.72 263.358 C 209.723 278.361 224.726 293.364 239.729 308.366 Z" transform="matrix(-1, 0, 0, -1, 440.220997, 565.950978)"/>
    <path style="fill: rgb(41, 41, 41); stroke: rgb(255, 255, 255);" d="M 265.877 283.155 L 256.702 292.331 C 254.204 294.829 250.153 294.829 247.654 292.331 L 210.755 255.432 C 208.257 252.933 208.257 248.883 210.755 246.384 L 219.931 237.208 C 222.429 234.71 226.48 234.71 228.978 237.208 L 265.878 274.108 C 268.376 276.606 268.376 280.656 265.877 283.155 Z" transform="matrix(-1, 0, 0, -1, 476.632848, 529.539)"/>
    <path style="fill: rgb(41, 41, 41); stroke: rgb(255, 255, 255);" d="M 260.311 299.757 L 248.932 311.136 C 245.834 314.234 240.81 314.234 237.712 311.136 L 191.95 265.374 C 188.852 262.276 188.852 257.253 191.95 254.154 L 203.329 242.775 C 206.427 239.677 211.451 239.677 214.55 242.775 L 260.311 288.536 C 263.409 291.635 263.409 296.658 260.311 299.757 Z" transform="matrix(-1, 0, 0, -1, 452.260963, 553.911013)"/>
  </g>
</svg>