<?xml version="1.0" encoding="utf-8"?>
<svg viewBox="0 0 600 600" xmlns="http://www.w3.org/2000/svg">
  <defs>
    <linearGradient gradientUnits="userSpaceOnUse" x1="255.992" y1="80.454" x2="255.992" y2="269.402" id="gradient-0">
      <stop offset="0" style="stop-color: rgba(119, 119, 119, 1)"/>
      <stop offset="1" style="stop-color: rgba(68, 68, 68, 1)"/>
    </linearGradient>
  </defs>
  <g id="SVGRepo_iconCarrier" transform="matrix(1, 0, 0, 1, 44.007996, 89.673996)">
    <polygon style="fill: rgb(41, 41, 41); stroke: rgb(255, 255, 255);" points="73.13800048828125 194.3260040283203 73.092 374.326 255.99200439453125 469.32598876953125 438.8919982910156 374.32598876953125 438.84600830078125 194.3260040283203"/>
    <polygon style="fill: rgb(41, 41, 41); stroke: rgb(255, 255, 255);" points="255.99200439453125 469.32598876953125 438.892 374.326 438.84600830078125 194.3260040283203 255.99200439453125 194.3260040283203"/>
    <polygon style="fill: rgb(41, 41, 41); stroke: rgb(255, 255, 255);" points="255.99200439453125 80.4260025024414 73.13800048828125 174.89199829101562 39.992 292.726 222.89199829101562 387.1260070800781 255.99200439453125 269.3739929199219 289.0920104980469 387.1260070800781 471.99200439453125 292.72601318359375 438.84600830078125 174.89199829101562"/>
    <polygon style="fill-rule: nonzero; fill: url(#gradient-0); stroke: rgb(255, 255, 255);" points="255.992,80.454 73.138,174.92 255.992,269.402 438.846,174.92 "/>
    <text style="fill: rgb(41, 41, 41); font-family: Arial, sans-serif; font-size: 18.7px; stroke: rgb(255, 255, 255); white-space: pre;" x="80.49" y="252.881"> </text>
  </g>
  <g id="g-3" transform="matrix(0.55542, 0, 0, 0.55542, 157.812393, 54.000004)" style="opacity: 0.9;">
    <path style="fill: rgb(199, 207, 226);" d="M212.17,435.162v33.008c0,24.207,19.623,43.83,43.83,43.83l0,0c24.207,0,43.83-19.623,43.83-43.83 v-33.008H212.17z"/>
    <path style="opacity: 0.1;" d="M245.362,468.17v-33.008H212.17v33.008c0,24.207,19.623,43.83,43.83,43.83 c5.875,0,11.475-1.164,16.596-3.262C256.621,502.196,245.362,486.502,245.362,468.17z"/>
    <path style="fill: rgb(255, 215, 130);" d="M257.892,86.994c-75.51-1.022-138.722,61.303-138.722,136.819c0,30.098,9.726,57.921,26.195,80.513 c26.43,44.007,38.985,64.51,42.774,91.373c1.625,11.518,11.466,20.091,23.097,20.091h89.53c11.631,0,21.472-8.573,23.097-20.091 c3.79-26.863,16.345-47.366,42.774-91.373c16.47-22.592,26.195-50.415,26.195-80.513C392.833,148.875,332.59,88.005,257.892,86.994z "/>
    <path style="opacity: 0.1;" d="M232.394,395.699c-3.79-26.863-16.344-47.366-42.774-91.373 c-16.47-22.592-26.195-50.415-26.195-80.513c0-67.413,50.377-124.309,114.905-135.017c-6.663-1.094-13.488-1.707-20.438-1.802 c-75.51-1.022-138.722,61.303-138.722,136.819c0,30.098,9.726,57.921,26.195,80.513c26.431,44.008,38.984,64.51,42.774,91.373 c1.625,11.518,11.465,20.09,23.097,20.09h44.256C243.86,415.79,234.018,407.216,232.394,395.699z"/>
    <path style="fill: rgb(180, 187, 204);" d="M317.798,435.162l-61.797-19.373l-61.797,19.373c-10.7,0-19.373,8.674-19.373,19.373 c0,10.7,8.674,19.374,19.373,19.374h123.595c10.7,0,19.373-8.674,19.373-19.374C337.171,443.837,328.497,435.162,317.798,435.162z"/>
    <path style="opacity: 0.1;" d="M219.085,454.536c0-10.7,8.674-19.373,19.374-19.373l39.67-12.436 l-22.128-6.937l-61.797,19.373c-10.7,0-19.374,8.674-19.374,19.373c0,10.7,8.674,19.374,19.374,19.374h44.256 C227.759,473.909,219.085,465.236,219.085,454.536z"/>
    <path style="fill: rgb(199, 207, 226);" d="M317.798,396.416H194.204c-10.7,0-19.373,8.674-19.373,19.373l0,0c0,10.7,8.674,19.373,19.373,19.373 h123.595c10.7,0,19.373-8.674,19.373-19.373l0,0C337.171,405.09,328.497,396.416,317.798,396.416z"/>
    <path style="opacity: 0.1;" d="M219.085,415.79c0-10.7,8.674-19.373,19.374-19.373h-44.256 c-10.7,0-19.374,8.674-19.374,19.373c0,10.7,8.674,19.373,19.374,19.373h44.256C227.759,435.162,219.085,426.489,219.085,415.79z"/>
    <g>
      <path style="fill: rgb(255, 215, 130);" d="M256.001,61.698c-4.584,0-8.298-3.715-8.298-8.298V8.298c0-4.583,3.714-8.298,8.298-8.298 s8.298,3.715,8.298,8.298V53.4C264.299,57.982,260.584,61.698,256.001,61.698z"/>
      <path style="fill: rgb(255, 215, 130);" d="M154.169,87.636c-2.941,0-5.789-1.567-7.294-4.33L125.3,43.698 c-2.192-4.024-0.707-9.064,3.317-11.256c4.027-2.193,9.065-0.707,11.256,3.318l21.575,39.608c2.192,4.024,0.707,9.064-3.317,11.256 C156.871,87.311,155.51,87.636,154.169,87.636z"/>
      <path style="fill: rgb(255, 215, 130);" d="M77.13,159.126c-1.542,0-3.101-0.429-4.493-1.328l-37.893-24.462 c-3.85-2.486-4.957-7.622-2.471-11.472s7.621-4.957,11.471-2.471l37.893,24.462c3.85,2.486,4.957,7.622,2.471,11.472 C82.522,157.786,79.854,159.126,77.13,159.126z"/>
      <path style="fill: rgb(255, 215, 130);" d="M357.832,87.636c-1.341,0-2.701-0.325-3.962-1.012c-4.024-2.192-5.509-7.232-3.317-11.256 l21.575-39.608c2.191-4.025,7.228-5.512,11.256-3.318c4.024,2.192,5.509,7.232,3.317,11.256l-21.575,39.608 C363.621,86.07,360.773,87.636,357.832,87.636z"/>
      <path style="fill: rgb(255, 215, 130);" d="M434.871,159.126c-2.724,0-5.391-1.34-6.979-3.798c-2.486-3.85-1.38-8.987,2.471-11.472 l37.893-24.462c3.848-2.485,8.985-1.38,11.471,2.471s1.38,8.987-2.471,11.472l-37.893,24.462 C437.973,158.697,436.413,159.126,434.871,159.126z"/>
    </g>
  </g>
  <g transform="matrix(1, 0, 0, 1, 0, 33)" style="opacity: 0.5;">
    <circle cx="328.286" cy="109.276" r="9.142" stroke-miterlimit="10" stroke-width="8" style="stroke: rgb(41, 41, 41);" fill="none"/>
    <circle cx="328.286" cy="189.276" r="9.142" stroke-miterlimit="10" stroke-width="8" style="stroke: rgb(41, 41, 41);" fill="none"/>
    <circle cx="340.858" cy="149.276" r="9.142" stroke-miterlimit="10" stroke-width="8" style="stroke: rgb(41, 41, 41);" fill="none"/>
    <polyline points="304.286 132.133 318 132.133 324.858 119.751" fill="none" stroke-miterlimit="10" stroke-width="8" style="stroke: rgb(41, 41, 41);"/>
    <polyline points="304.286 166.99 318 166.99 324.858 179.373" fill="none" stroke-miterlimit="10" stroke-width="8" style="stroke: rgb(41, 41, 41);"/>
    <path d="M 303.714 107.562 C 303.714 97.444 292.762 91.121 284 96.18 C 277.97 99.662 275.701 107.242 278.828 113.464 C 277.256 112.589 275.486 112.13 273.686 112.133 C 267.4 112.133 262.258 117.762 262.258 124.704 C 262.231 127.966 263.414 131.121 265.578 133.562 C 264.779 133.376 263.963 133.28 263.143 133.276 C 255.886 133.276 250 140.441 250 149.276 C 250 158.11 255.886 165.276 263.143 165.276 C 263.972 165.275 264.799 165.179 265.606 164.99 C 263.442 167.43 262.26 170.586 262.286 173.846 C 262.286 180.79 267.428 186.419 273.714 186.419 C 275.514 186.421 277.285 185.963 278.858 185.087 C 274.27 194.105 281.166 204.707 291.269 204.171 C 298.268 203.798 303.744 198 303.714 190.99 C 303.714 190.796 303.714 190.607 303.714 190.419 L 303.714 108.133 C 303.714 107.944 303.714 107.756 303.714 107.562 Z" fill="none" stroke-linejoin="bevel" stroke-width="8" style="stroke: rgb(41, 41, 41);"/>
    <line x1="330" y1="149.276" x2="302.572" y2="149.276" fill="none" stroke-miterlimit="10" stroke-width="8" style="stroke: rgb(41, 41, 41);"/>
    <path d="M 281.006 98.27 C 288.236 91.193 300.416 94.597 302.93 104.397 C 304.072 108.846 302.807 113.569 299.594 116.853 L 293.24 116.853" fill="none" stroke-miterlimit="10" stroke-width="8" style="stroke: rgb(41, 41, 41);"/>
    <polyline points="278.828 113.556 283.714 121.276 283.714 132.704" fill="none" stroke-miterlimit="10" stroke-width="8" style="stroke: rgb(41, 41, 41);"/>
    <path d="M 281.578 200.281 C 288.732 207.436 300.949 204.163 303.568 194.389 C 304.784 189.854 303.487 185.013 300.167 181.693 L 292.8 181.693" fill="none" stroke-miterlimit="10" stroke-width="8" style="stroke: rgb(41, 41, 41);"/>
    <line x1="278.828" y1="185.087" x2="285.714" y2="175.562" fill="none" stroke-miterlimit="10" stroke-width="8" style="stroke: rgb(41, 41, 41);"/>
    <line x1="268.84" y1="141.646" x2="278.828" y2="155.813" fill="none" stroke-miterlimit="10" stroke-width="8" style="stroke: rgb(41, 41, 41);"/>
    <polyline points="303.714 146.419 289.428 146.419 271.286 163.424" fill="none" stroke-miterlimit="10" stroke-width="8" style="stroke: rgb(41, 41, 41);"/>
  </g>
</svg>