<?xml version="1.0" encoding="utf-8"?>
<svg viewBox="0 0 500 500" xmlns="http://www.w3.org/2000/svg">
  <defs>
    <linearGradient gradientUnits="userSpaceOnUse" x1="162.874" y1="265.441" x2="162.874" y2="415.664" id="gradient-1" gradientTransform="matrix(1.032801, -1.00288, -0.464777, -0.478638, 243.840496, 497.274599)">
      <stop offset="0" style="stop-color: rgb(119, 119, 119);"/>
      <stop offset="1" style="stop-color: rgb(249, 237, 178);"/>
    </linearGradient>
  </defs>
  <g id="SVGRepo_iconCarrier" transform="matrix(1.43307, 0.452279, 0, 1.223179, -164.091705, -213.717804)" style="">
    <polygon style="fill: rgb(41, 41, 41); stroke: rgb(255, 255, 255);" points="172.132 219.641 172.1320037841797 407.11199951171875 255.9429931640625 469.3429870605469 438.8429870605469 374.3429870605469 438.7969970703125 194.34300231933594"/>
    <polygon style="fill: rgb(41, 41, 41); stroke: rgb(255, 255, 255);" points="255.99200439453125 469.32598876953125 438.28399658203125 374.5899963378906 438.284 175.028 255.99200439453125 194.3260040283203"/>
    <polygon style="stroke: rgb(255, 255, 255); fill: rgb(119, 119, 119);" points="172.1320037841797 219.64100646972656 122.37699890136719 358.95599365234375 206.141 408.769 255.99200439453125 269.3739929199219"/>
    <polygon style="fill-rule: nonzero; stroke: rgb(255, 255, 255); fill: rgb(119, 119, 119);" points="347.4219970703125 127.7229995727539 172.132 219.641 255.99200439453125 269.4020080566406 438.84600830078125 174.9199981689453"/>
    <path style="fill: rgb(216, 216, 216); stroke: rgb(255, 255, 255);" d="M 360.83 125.405 L 334.097 224.585" transform="matrix(1.04862, -0.351934, 0.283018, 0.858649, -66.420281, 147.020052)"/>
    <path style="fill: rgb(41, 41, 41); stroke: rgb(255, 255, 255); white-space: pre;"/>
  </g>
  <g transform="matrix(1, 0, 0, 1, -14.565906, -21.763931)">
    <g transform="matrix(1.860358, -0.233867, 0, 1.860358, -222.911133, -176.513916)" style="">
      <ellipse style="stroke-width: 4px; fill: none; stroke: rgb(255, 247, 171);" cx="260" cy="355" rx="10" ry="10"/>
      <ellipse style="stroke-width: 4px; fill: none; stroke: rgb(255, 247, 171);" cx="260" cy="295" rx="10" ry="10"/>
      <ellipse style="stroke-width: 4px; fill: none; stroke: rgb(255, 247, 171);" cx="310" cy="370" rx="10" ry="10"/>
      <ellipse style="stroke-width: 4px; fill: none; stroke: rgb(255, 247, 171);" cx="310" cy="340" rx="10" ry="10"/>
      <ellipse style="stroke-width: 4px; fill: none; stroke: rgb(255, 247, 171);" cx="310" cy="310" rx="10" ry="10"/>
      <ellipse style="stroke-width: 4px; fill: none; stroke: rgb(255, 247, 171);" cx="310" cy="280" rx="10" ry="10"/>
      <ellipse style="fill: none; stroke-width: 4px; stroke: rgb(255, 247, 171);" cx="360" cy="325" rx="10" ry="10"/>
      <path style="fill: none; stroke-width: 2px; stroke: rgb(255, 247, 171);" d="M 319 280 L 349 325 L 319 310"/>
      <path style="fill: none; stroke-width: 2px; stroke: rgb(255, 247, 171);" d="M 320 371 L 350 325 L 320 341"/>
      <path style="fill: none; stroke-width: 2px; stroke: rgb(255, 247, 171);" d="M 298.966 280 L 270 295 L 298.966 310"/>
      <path style="fill: none; stroke-width: 2px; stroke: rgb(255, 247, 171);" d="M 300 340 L 271.034 355 L 300 370"/>
      <path style="fill: none; stroke-width: 2px; stroke: rgb(255, 247, 171);" d="M 298.966 340 L 270 295 L 298.966 370"/>
      <path style="fill: none; stroke-width: 2px; stroke: rgb(255, 247, 171);" d="M 298.966 310 L 270 355 L 298.966 280"/>
    </g>
  </g>
  <path style="fill: url(#gradient-1); fill-opacity: 0.6;" d="M 454.651 220.97 L 247.191 101.059 C 221.831 73.864 150.823 134.622 180.834 167.417 L 194.784 212.6 L 454.651 220.97 Z" transform="matrix(0.987689, -0.156433, 0.156433, 0.987689, -20.787573, 51.077263)"/>
  <g transform="matrix(-0.406501, -3.310707, 3.310707, -0.406501, -190.321671, 1142.490601)">
    <path d="M 287.6 150.565 C 280 142.965 270.9 139.865 267 143.565 C 272.2 138.565 279.5 136.965 286.1 138.865 L 311.9 112.965 C 314.9 113.865 317.8 115.465 320.2 117.865 C 322.6 120.265 324.2 123.165 325.1 126.165 L 299.3 152.165 C 301.2 158.665 299.6 166.065 294.6 171.265 C 298.2 167.265 295.1 158.165 287.6 150.565" fill="#3e4347"/>
    <path d="M 287.6 150.565 C 281.9 144.865 274.3 143.365 270.5 146.965 C 275.7 141.865 282.3 139.565 287.8 140.465 L 313.6 114.665 C 316.2 115.065 318.5 116.165 320.3 117.965 C 322.1 119.765 323.2 122.065 323.6 124.665 L 297.6 150.465 C 298.4 155.965 296.2 162.565 291.1 167.765 C 294.8 163.865 293.2 156.265 287.6 150.565" style="fill: rgb(119, 119, 119);"/>
    <path d="M 273.7 164.465 C 266.1 156.865 263 147.565 266.7 143.765 L 266.9 143.565 C 270.8 139.965 280 143.065 287.5 150.565 C 295.1 158.165 298.2 167.265 294.5 171.165 L 294.3 171.365 C 290.6 175.165 281.4 172.065 273.7 164.465" fill="#fef500"/>
    <path d="M 280.3 157.865 C 276.6 154.165 275.1 149.765 277 147.865 C 277 147.865 277.1 147.865 277.1 147.765 C 279 146.065 283.4 147.465 287 151.165 C 290.6 154.765 292.1 159.165 290.4 161.065 L 290.3 161.165 C 288.4 162.965 284 161.465 280.3 157.865" fill="#fff7ab"/>
    <path d="M 281.1 157.065 C 279.4 155.365 278.7 153.265 279.5 152.365 C 280.4 151.565 282.4 152.265 284.1 153.965 C 285.8 155.665 286.5 157.765 285.7 158.565 C 284.9 159.465 282.8 158.765 281.1 157.065" fill="#ffffff"/>
    <path fill="#3e4347" d="M 307.593 143.295 L 313.603 137.285 L 315.371 139.054 L 309.36 145.064 L 307.593 143.295 Z"/>
    <path fill="#676e72" d="M 309.3 141.494 L 312.694 138.099 L 314.462 139.867 L 311.068 143.262 L 309.3 141.494 Z"/>
  </g>
</svg>