<!DOCTYPE svg PUBLIC "-//W3C//DTD SVG 1.1//EN" "http://www.w3.org/Graphics/SVG/1.1/DTD/svg11.dtd">
<!-- Uploaded to: SVG Repo, www.svgrepo.com, Transformed by: SVG Repo Mixer Tools -->
<svg version="1.1" id="Layer_1" xmlns="http://www.w3.org/2000/svg" xmlns:xlink="http://www.w3.org/1999/xlink" viewBox="0 0 398.502 398.502" xml:space="preserve" width="800px" height="800px" fill="#000000">
<g id="SVGRepo_bgCarrier" stroke-width="0"/>
<g id="SVGRepo_tracerCarrier" stroke-linecap="round" stroke-linejoin="round"/>
<g id="SVGRepo_iconCarrier"> <g> <polygon style="fill:#3E81C8;" points="227.741,360.947 221.728,386.947 176.754,386.947 170.741,360.947 "/> <polygon style="fill:#3E81C8;" points="254.751,325.177 248.067,353.177 150.435,353.177 143.751,325.177 "/> <rect x="167.751" y="254.827" style="fill:#EB7830;" width="63" height="63.74"/> <path style="fill:#EB7830;" d="M237.161,193.872l-6.44,55.56h-62.94l-6.44-55.56l7.5,3.91c1.57,1.45,8.66,2.2,10.79,2.11 c2.13-0.1,4.13-1.04,5.56-2.62l14.06-12.53l14.05,12.53c1.43,1.58,3.44,2.52,5.57,2.62c0.12,0,0.24,0.01,0.36,0.01 c2.01,0,8.94-0.75,10.42-2.12L237.161,193.872z"/> <path style="fill:#F5C525;" d="M297.261,176.372c0,14.23-3.12,27.88-9.29,40.57c-14.55,29.97-28.07,67.25-29.42,101.02h-22.34 v-65.53l8.93-65.49c0.62-4.37,3.58-8.42-0.8-9.04c-2.47-0.35-4.84,0.47-6.54,2.04l-18.05,16.61l-14.57-16.1 c-1.52-1.67-3.67-2.63-5.93-2.63s-4.42,0.96-5.93,2.63l-14.58,16.1l-18.04-16.62c-3.25-2.99-3.31-2.78-6.31,0.47 c-1.69,1.84-2.36,4.25-2.03,6.54l9.93,65.49v65.53h-22.35c-1.14-28.07-10.35-63.35-28.73-99.64c-6.57-12.98-9.93-26.99-9.97-41.65 c-0.16-50.74,45.97-97.6,96.68-98.3C249.831,77.662,297.261,124.642,297.261,176.372z"/> <g> <path style="fill:#231F20;" d="M199.251,67.362c-0.52,0-1.03,0-1.55,0.01c-59.44,0.82-107.65,49.88-107.46,109.35 c0.05,17.18,3.99,33.6,11.7,48.83c18.5,36.55,27.12,66.21,27.12,93.36v2.05c0,0.8,0.13,1.58,0.35,2.31c0,0,0,0,0,0.01v0.01 c0.01,0.03,0.02,0.05,0.03,0.08l11.01,36.34c1.02,3.37,4.13,5.68,7.65,5.68h10.23l8.19,27.4c1.01,3.39,4.13,5.71,7.66,5.71h50.14 c3.53,0,6.65-2.32,7.66-5.71l8.19-27.4h10.23c3.52,0,6.63-2.31,7.65-5.68l11.02-36.34c0-0.03,0.01-0.05,0.02-0.08v-0.01 c0-0.01,0-0.01,0-0.01c0.22-0.73,0.35-1.51,0.35-2.31v-2.51c0-32.53,13.42-64.65,27.92-94.52c7.24-14.89,10.9-30.89,10.9-47.56 C308.261,116.262,259.361,67.362,199.251,67.362z M218.361,382.502h-38.22l-5.11-17.11h48.44L218.361,382.502z M244.461,349.392 h-90.42l-6.19-20.43h102.8L244.461,349.392z M172.781,244.432l-6.44-45.56l7.5,6.91c1.57,1.45,3.66,2.2,5.79,2.11 c2.13-0.1,4.13-1.04,5.56-2.62l14.06-15.53l14.05,15.53c1.43,1.58,3.44,2.52,5.57,2.62c0.12,0,0.24,0.01,0.36,0.01 c2.01,0,3.94-0.75,5.42-2.12l7.51-6.91l-6.44,45.56H172.781z M225.211,260.432v52.53h-51.92v-52.53H225.211z M282.971,216.942 c-14.55,29.97-28.07,62.25-29.42,96.02h-12.34v-60.53l9.93-73.49c0.62-4.37-2.42-8.42-6.8-9.04c-2.47-0.35-4.84,0.47-6.54,2.04 l-18.05,16.61l-14.57-16.1c-1.52-1.67-3.67-2.63-5.93-2.63s-4.42,0.96-5.93,2.63l-14.58,16.1l-18.04-16.62 c-3.25-2.99-8.31-2.78-11.31,0.47c-1.69,1.84-2.36,4.25-2.03,6.54l9.93,73.49v60.53h-12.35c-1.14-28.07-10.35-58.35-28.73-94.64 c-6.57-12.98-9.93-26.99-9.97-41.65c-0.16-50.74,40.97-92.6,91.68-93.3c51.91-0.71,94.34,41.27,94.34,93 C292.261,190.602,289.141,204.252,282.971,216.942z"/> <path style="fill:#231F20;" d="M67.602,175.614c0-4.418-3.582-8-8-8H31.637c-4.418,0-8,3.582-8,8s3.582,8,8,8h27.965 C64.021,183.614,67.602,180.032,67.602,175.614z"/> <path style="fill:#231F20;" d="M366.865,167.614H338.9c-4.418,0-8,3.582-8,8s3.582,8,8,8h27.965c4.418,0,8-3.582,8-8 S371.284,167.614,366.865,167.614z"/> <path style="fill:#231F20;" d="M82.311,98.861L58.093,84.878c-3.827-2.21-8.719-0.898-10.928,2.928 c-2.209,3.826-0.898,8.719,2.928,10.928l24.218,13.983c1.26,0.728,2.635,1.073,3.993,1.073c2.765,0,5.454-1.435,6.936-4.001 C87.449,105.963,86.138,101.071,82.311,98.861z"/> <path style="fill:#231F20;" d="M348.409,252.493L324.19,238.51c-3.827-2.209-8.719-0.898-10.928,2.928 c-2.209,3.826-0.898,8.719,2.928,10.928l24.219,13.983c1.26,0.728,2.635,1.073,3.993,1.073c2.765,0,5.454-1.435,6.936-4.001 C353.546,259.595,352.235,254.702,348.409,252.493z"/> <path style="fill:#231F20;" d="M122.498,58.674c1.482,2.566,4.171,4.001,6.936,4.001c1.357,0,2.733-0.346,3.993-1.073 c3.826-2.209,5.137-7.102,2.928-10.928l-13.982-24.218c-2.209-3.826-7.103-5.135-10.928-2.928 c-3.826,2.209-5.137,7.102-2.928,10.928L122.498,58.674z"/> <path style="fill:#231F20;" d="M199.251,43.965c4.418,0,8-3.582,8-8V8c0-4.418-3.582-8-8-8s-8,3.582-8,8v27.965 C191.251,40.384,194.832,43.965,199.251,43.965z"/> <path style="fill:#231F20;" d="M265.076,61.603c1.26,0.728,2.635,1.073,3.993,1.073c2.765,0,5.454-1.435,6.936-4.001 l13.982-24.218c2.209-3.826,0.898-8.719-2.928-10.928c-3.826-2.21-8.719-0.898-10.928,2.928l-13.982,24.218 C259.938,54.5,261.249,59.394,265.076,61.603z"/> <path style="fill:#231F20;" d="M320.198,113.791c1.357,0,2.733-0.346,3.993-1.073l24.219-13.983 c3.826-2.209,5.137-7.102,2.928-10.928c-2.209-3.827-7.103-5.135-10.928-2.928l-24.22,13.982 c-3.826,2.209-5.137,7.102-2.928,10.928C314.744,112.356,317.433,113.791,320.198,113.791z"/> <path style="fill:#231F20;" d="M74.311,238.51l-24.218,13.983c-3.827,2.209-5.137,7.102-2.928,10.928 c1.482,2.567,4.171,4.001,6.936,4.001c1.357,0,2.733-0.346,3.993-1.073l24.218-13.983c3.826-2.209,5.137-7.102,2.928-10.928 C83.03,237.611,78.137,236.303,74.311,238.51z"/> </g> </g> </g>
</svg>