<?xml version="1.0" encoding="iso-8859-1"?>
<!-- Uploaded to: SVG Repo, www.svgrepo.com, Generator: SVG Repo Mixer Tools -->
<svg version="1.1" id="Layer_1" xmlns="http://www.w3.org/2000/svg" xmlns:xlink="http://www.w3.org/1999/xlink" 
	 viewBox="0 0 512 512" xml:space="preserve">
<polygon style="fill:#F9EDB2;" points="511.586,162.558 298.679,307.158 204.428,212.908 349.029,0 "/>
<polygon style="fill:#FCF5D6;" points="430.636,81.608 349.029,0 204.428,212.908 251.882,260.361 "/>
<path style="fill:#2D2E30;" d="M200.215,417.878c2.904,2.904,4.134,7.087,3.264,11.101c-0.871,4.014-3.722,7.311-7.568,8.752
	l-89.662,33.574L87.634,452.69l73.697-73.697L200.215,417.878z"/>
<path style="fill:#E1E1E3;" d="M289.505,298.244L83.881,503.868c-10.669,10.669-27.968,10.669-38.638,0L8.417,467.04
	c-10.669-10.669-10.669-27.968,0-38.638l205.624-205.623L289.505,298.244z"/>
<path style="fill:#9E9E9E;" d="M168.219,344.064L168.219,344.064L26.83,485.454l18.636,18.636c10.547,10.547,27.647,10.547,38.195,0
	l205.845-205.846l-37.732-37.732L168.219,344.064z"/>
<path style="fill:#F7DC4D;" d="M281.09,323.221c7.434-10.696,11.803-23.681,11.803-37.693c0-36.527-29.611-66.138-66.138-66.138
	c-14.012,0-26.997,4.369-37.693,11.803C219.738,261.87,250.414,292.545,281.09,323.221z"/>
<path style="fill:#EA9632;" d="M235.077,277.208c15.338,15.338,30.675,30.675,46.014,46.014
	c7.434-10.696,11.803-23.681,11.803-37.693c0-18.264-7.403-34.798-19.372-46.766L235.077,277.208z"/>
<path style="fill:#9B0700;" d="M260.106,346.124l-18.761,18.762c-5.108,5.108-13.39,5.108-18.499,0l-75.448-75.448
	c-5.108-5.108-5.108-13.39,0-18.499l18.762-18.762c5.108-5.108,13.39-5.108,18.499,0l75.448,75.448
	C265.215,332.733,265.215,341.015,260.106,346.124z"/>
<path style="fill:#6D0000;" d="M185.123,327.161l37.83,37.83c5.05,5.05,13.237,5.05,18.287,0l18.973-18.973
	c5.05-5.05,5.049-13.237,0-18.287l-37.83-37.83L185.123,327.161z"/>
<path style="fill:#DE3205;" d="M298.556,330.237l-23.266,23.266c-6.335,6.335-16.606,6.335-22.942,0l-93.567-93.567
	c-6.335-6.335-6.335-16.606,0-22.942l23.266-23.266c6.335-6.335,16.606-6.335,22.942,0l93.567,93.567
	C304.891,313.63,304.891,323.901,298.556,330.237z"/>
<path style="fill:#9D2217;" d="M205.565,306.72l46.915,46.915c6.263,6.263,16.415,6.263,22.678,0l23.53-23.53
	c6.263-6.263,6.263-16.415,0-22.678l-46.915-46.915L205.565,306.72z"/>
<rect x="166.688" y="281.431" transform="matrix(-0.7071 0.7071 -0.7071 -0.7071 539.8206 446.125)" style="fill:#9E9E9E;" width="21.653" height="106.864"/>
</svg>