<?xml version="1.0" encoding="utf-8"?>
<!-- Uploaded to: SVG Repo, www.svgrepo.com, Generator: SVG Repo Mixer Tools -->
<svg width="800px" height="800px" viewBox="0 0 1024 1024" fill="#000000" class="icon"  version="1.1" xmlns="http://www.w3.org/2000/svg"><path d="M472.032 695.854a47.722 47.722 0 0 1-33.912-14.022c-18.706-18.69-18.69-49.136 0.016-67.842a7.988 7.988 0 0 1 11.304 0 7.986 7.986 0 0 1 0 11.302c-12.476 12.476-12.476 32.758-0.016 45.234 12.444 12.446 32.742 12.46 45.25 0 5.918-5.934 9.26-13.788 9.368-22.11 0.062-4.418 3.45-8.166 8.104-7.884a7.99 7.99 0 0 1 7.884 8.104c-0.172 12.508-5.168 24.28-14.052 33.18-9.354 9.368-21.658 14.038-33.946 14.038zM424.098 490.516c-26.45 0-47.966-21.508-47.966-47.952 0-26.458 21.516-47.98 47.966-47.98a47.928 47.928 0 0 1 31.852 12.054 8 8 0 0 1 0.672 11.288 8.016 8.016 0 0 1-11.29 0.672 31.912 31.912 0 0 0-21.234-8.026c-17.628 0-31.978 14.35-31.978 31.992 0 17.622 14.348 31.962 31.978 31.962a7.988 7.988 0 0 1 7.994 7.994 7.99 7.99 0 0 1-7.994 7.996zM374.508 581.95a8.188 8.188 0 0 1-3.186-0.656 31.964 31.964 0 0 1-19.174-29.306c0-17.642 14.35-31.992 31.978-31.992 4.418 0 7.994 3.576 7.994 7.994s-3.576 7.994-7.994 7.994c-8.822 0-15.99 7.182-15.99 16.004a15.936 15.936 0 0 0 9.556 14.63 7.992 7.992 0 0 1 4.136 10.524 7.966 7.966 0 0 1-7.32 4.808z" fill="" /><path d="M384.126 535.982c-22.046 0-39.972-17.916-39.972-39.94 0.016-24.85 23.686-44.258 48.356-39.128a7.99 7.99 0 0 1 6.184 9.454 7.948 7.948 0 0 1-9.462 6.19c-14.848-3.06-29.088 8.564-29.088 23.484 0 13.208 10.758 23.952 23.984 23.952 4.418 0 7.994 3.576 7.994 7.994s-3.578 7.994-7.996 7.994zM480.056 440.05c-22.046 0-39.97-17.916-39.97-39.94 0-22.054 17.924-40.002 39.97-40.002s39.972 17.948 39.972 40.002a7.99 7.99 0 0 1-7.994 7.994 7.99 7.99 0 0 1-7.996-7.994c0-13.24-10.758-24.014-23.984-24.014-13.224 0-23.982 10.774-23.982 24.014 0 13.208 10.758 23.952 23.982 23.952a7.99 7.99 0 0 1 7.996 7.994 7.986 7.986 0 0 1-7.994 7.994zM424.208 663.922c-16.832 0-33.274-6.682-45.36-18.752-24.934-24.936-24.918-65.516 0.032-90.466 12.086-12.1 28.136-18.752 45.188-18.752h0.016c17.05 0 33.118 6.652 45.232 18.768a7.988 7.988 0 0 1 0 11.304 7.988 7.988 0 0 1-11.304 0c-9.086-9.086-21.142-14.084-33.928-14.084h-0.016c-12.772 0-24.81 4.998-33.882 14.068-18.72 18.72-18.736 49.168-0.032 67.86 10.82 10.804 26.31 15.894 41.362 13.504 4.294-0.592 8.462 2.312 9.134 6.668a8.018 8.018 0 0 1-6.668 9.134 64.46 64.46 0 0 1-9.774 0.748zM552.03 695.87c-12.304 0-24.584-4.686-33.938-14.038-8.882-8.916-13.88-20.688-14.052-33.196a7.992 7.992 0 0 1 7.886-8.104c4.48-0.156 8.026 3.466 8.104 7.884 0.11 8.322 3.45 16.176 9.36 22.124 12.524 12.46 32.82 12.46 45.25-0.016 12.458-12.476 12.458-32.758 0-45.234-3.124-3.122-3.124-8.18 0-11.302s8.182-3.124 11.304 0c18.706 18.706 18.706 49.152 0 67.842-9.338 9.354-21.642 14.04-33.914 14.04zM599.962 490.516a8 8 0 0 1-7.992-7.994 7.998 7.998 0 0 1 7.992-7.994c17.644 0 31.978-14.342 31.978-31.962 0-17.642-14.334-31.992-31.978-31.992a31.942 31.942 0 0 0-21.234 8.026c-3.308 2.912-8.37 2.63-11.274-0.672a8.014 8.014 0 0 1 0.656-11.288 47.958 47.958 0 0 1 31.852-12.054c26.452 0 47.966 21.524 47.966 47.98 0.002 26.442-21.514 47.95-47.966 47.95zM649.552 581.95c-3.058 0-6.026-1.794-7.306-4.808a7.972 7.972 0 0 1 4.124-10.524 15.94 15.94 0 0 0 9.554-14.63c0-8.822-7.15-16.004-15.988-16.004a8 8 0 0 1-7.994-7.994 8 8 0 0 1 7.994-7.994c17.644 0 31.976 14.35 31.976 31.992a31.964 31.964 0 0 1-19.174 29.306 8.208 8.208 0 0 1-3.186 0.656z" fill="" /><path d="M639.936 535.982a8 8 0 0 1-7.994-7.994 8 8 0 0 1 7.994-7.994c13.24 0 23.982-10.742 23.982-23.952 0-14.928-14.208-26.59-29.072-23.484a7.94 7.94 0 0 1-9.462-6.19 7.992 7.992 0 0 1 6.184-9.454c24.732-5.128 48.34 14.28 48.34 39.128-0.002 22.024-17.926 39.94-39.972 39.94zM544.004 440.05a8 8 0 0 1-7.994-7.994 8 8 0 0 1 7.994-7.994c13.24 0 23.982-10.742 23.982-23.952 0-13.24-10.742-24.014-23.982-24.014-13.208 0-23.974 10.774-23.974 24.014a7.99 7.99 0 0 1-7.994 7.994 7.99 7.99 0 0 1-7.996-7.994c0-22.054 17.924-40.002 39.964-40.002 22.046 0 39.97 17.948 39.97 40.002 0 22.024-17.924 39.94-39.97 39.94zM599.838 663.922a64.2 64.2 0 0 1-9.742-0.748 8.03 8.03 0 0 1-6.684-9.134c0.688-4.372 4.842-7.338 9.15-6.668 15.084 2.39 30.542-2.7 41.346-13.52 18.706-18.676 18.706-49.124-0.032-67.844-9.054-9.07-21.11-14.068-33.882-14.068-12.802 0-24.856 4.998-33.944 14.084-3.124 3.124-8.182 3.124-11.304 0s-3.124-8.182 0-11.304c12.118-12.116 28.2-18.768 45.248-18.768 17.05 0 33.102 6.652 45.188 18.752 24.952 24.952 24.982 65.532 0.032 90.466-12.088 12.07-28.512 18.752-45.376 18.752zM615.922 967.676H408.078a7.982 7.982 0 0 1-5.652-2.344l-31.978-31.976a7.988 7.988 0 0 1-2.342-5.652v-111.92a7.988 7.988 0 0 1 7.994-7.994h271.798a7.998 7.998 0 0 1 7.994 7.994v111.92a7.992 7.992 0 0 1-2.342 5.652l-31.976 31.976a7.99 7.99 0 0 1-5.652 2.344z m-204.534-15.99h201.224l27.292-27.292v-100.616H384.094v100.616l27.294 27.292z" fill="" /><path d="M360.112 871.742a7.986 7.986 0 0 1-7.978-7.572 8.008 8.008 0 0 1 7.556-8.416l303.76-15.988c4.498-0.094 8.182 3.17 8.4 7.574 0.25 4.418-3.152 8.164-7.556 8.414l-303.76 15.988h-0.422zM360.112 919.708a7.988 7.988 0 0 1-7.978-7.572 8.008 8.008 0 0 1 7.556-8.416l303.76-15.988a7.95 7.95 0 0 1 8.4 7.572c0.25 4.418-3.152 8.166-7.556 8.416l-303.76 15.988h-0.422zM647.898 823.778H376.1a7.99 7.99 0 0 1-7.994-7.994v-49.558c-80.176-50.106-127.908-135.84-127.908-230.242 0-149.876 121.928-271.806 271.806-271.806 149.854 0 271.796 121.928 271.796 271.806 0 94.418-47.746 180.152-127.908 230.242v49.558a8 8 0 0 1-7.994 7.994z m-263.804-15.988h255.81V761.76a7.96 7.96 0 0 1 3.872-6.84c77.664-46.826 124.038-128.658 124.038-218.938 0-141.054-114.762-255.816-255.808-255.816-141.056 0-255.818 114.762-255.818 255.816 0 90.248 46.374 172.096 124.038 218.938a7.96 7.96 0 0 1 3.872 6.84v46.03zM512.004 999.652c-60.208 0-78.352-34.914-79.1-36.396a7.996 7.996 0 0 1 3.576-10.726c3.952-1.936 8.712-0.39 10.696 3.514 0.624 1.202 15.146 27.622 64.83 27.622 49.736 0 64.226-26.498 64.82-27.636 2.03-3.874 6.838-5.434 10.742-3.436s5.496 6.744 3.53 10.664c-0.752 1.48-18.894 36.394-79.094 36.394zM168.248 543.976H8.364a7.988 7.988 0 0 1-7.994-7.994 7.988 7.988 0 0 1 7.994-7.994h159.884a7.99 7.99 0 0 1 7.996 7.994 7.99 7.99 0 0 1-7.996 7.994zM1015.636 543.976h-159.886a7.98 7.98 0 0 1-7.994-7.994 7.98 7.98 0 0 1 7.994-7.994h159.886a8 8 0 0 1 7.994 7.994 7.998 7.998 0 0 1-7.994 7.994zM75.83 795.796a7.976 7.976 0 0 1-6.916-3.996 7.996 7.996 0 0 1 2.918-10.93l138.496-79.944c3.826-2.186 8.728-0.906 10.914 2.936a7.996 7.996 0 0 1-2.92 10.93l-138.494 79.942a8.06 8.06 0 0 1-3.998 1.062zM809.72 372.1a7.99 7.99 0 0 1-6.934-3.998 7.978 7.978 0 0 1 2.936-10.922l138.434-79.942c3.808-2.194 8.712-0.914 10.898 2.928a7.996 7.996 0 0 1-2.904 10.922l-138.434 79.942a8.072 8.072 0 0 1-3.996 1.07zM683.904 246.284a7.916 7.916 0 0 1-3.998-1.07 7.978 7.978 0 0 1-2.936-10.922l79.912-138.464c2.186-3.834 7.056-5.152 10.93-2.928a7.992 7.992 0 0 1 2.904 10.922l-79.912 138.464a7.952 7.952 0 0 1-6.9 3.998zM512.036 200.192a7.99 7.99 0 0 1-7.996-7.994l-0.016-159.856a7.996 7.996 0 0 1 15.99 0l0.016 159.856a7.996 7.996 0 0 1-7.994 7.994zM340.158 246.252a7.956 7.956 0 0 1-6.916-3.998l-79.944-138.432a7.984 7.984 0 0 1 2.92-10.922 7.98 7.98 0 0 1 10.914 2.928l79.944 138.432a7.984 7.984 0 0 1-6.918 11.992zM948.184 795.766a8 8 0 0 1-3.996-1.06l-138.464-79.944a7.988 7.988 0 0 1-2.936-10.93 8.01 8.01 0 0 1 10.93-2.936l138.464 79.944a8.004 8.004 0 0 1 2.904 10.93 7.956 7.956 0 0 1-6.902 3.996zM214.326 372.038a8.008 8.008 0 0 1-3.998-1.07L71.88 291.056a7.986 7.986 0 0 1-2.92-10.922c2.202-3.826 7.104-5.114 10.914-2.928l138.448 79.912a7.984 7.984 0 0 1 2.92 10.922 7.98 7.98 0 0 1-6.916 3.998z" fill="" /><path d="M512.036 656.522a7.99 7.99 0 0 1-7.996-7.994V400.112a7.99 7.99 0 0 1 7.996-7.994 7.99 7.99 0 0 1 7.994 7.994v248.416a7.99 7.99 0 0 1-7.994 7.994z" fill="" /><path d="M535.978 599.938c-20.71 0-30.69-19.58-31.096-20.424a7.992 7.992 0 0 1 14.288-7.166c0.094 0.172 6.106 11.602 16.808 11.602a8 8 0 0 1 7.994 7.994 8 8 0 0 1-7.994 7.994z" fill="" /><path d="M488.004 599.938a7.99 7.99 0 0 1-7.994-7.994 7.988 7.988 0 0 1 7.994-7.994c10.71 0 16.738-11.492 16.8-11.602 2.014-3.888 6.824-5.48 10.728-3.514 3.918 1.998 5.528 6.746 3.558 10.68-0.404 0.844-10.382 20.424-31.086 20.424zM551.966 504.006c-37.918 0-47.926-26.146-47.926-39.972a7.996 7.996 0 0 1 15.99-0.07c0.046 2.466 1.326 24.054 31.938 24.054a8 8 0 0 1 7.994 7.994 8.002 8.002 0 0 1-7.996 7.994z" fill="" /><path d="M472.016 504.006a7.99 7.99 0 0 1-7.994-7.994 7.99 7.99 0 0 1 7.994-7.994c30.604 0 31.884-21.594 31.932-24.054 0.078-4.396 3.48-8.228 8.072-7.884a7.956 7.956 0 0 1 7.916 7.956c0 13.824-10.01 39.97-47.92 39.97z" fill="" /></svg>