<?xml version="1.0" encoding="utf-8"?>
<svg viewBox="0 0 500 500" xmlns="http://www.w3.org/2000/svg">
  <defs>
    <linearGradient gradientUnits="userSpaceOnUse" x1="162.874" y1="265.441" x2="162.874" y2="415.664" id="gradient-1" gradientTransform="matrix(0.732144, 0.681152, -0.128176, 0.137772, 49.648422, 225.82713)">
      <stop offset="0" style="stop-color: rgb(119, 119, 119);"/>
      <stop offset="1" style="stop-color: rgb(249, 237, 178);"/>
    </linearGradient>
  </defs>
  <g id="SVGRepo_iconCarrier" transform="matrix(1.43307, 0.452279, 0, 1.223179, -149.525807, -191.953878)" style="">
    <polygon style="fill: rgb(41, 41, 41); stroke: rgb(255, 255, 255);" points="172.132 219.641 172.1320037841797 407.11199951171875 255.9429931640625 469.3429870605469 438.8429870605469 374.3429870605469 438.7969970703125 194.34300231933594"/>
    <polygon style="fill: rgb(41, 41, 41); stroke: rgb(255, 255, 255);" points="255.992 469.326 438.892 374.326 438.42 173.156 255.992 194.326"/>
    <polygon style="stroke: rgb(255, 255, 255); fill: rgb(119, 119, 119);" points="172.1320037841797 219.64100646972656 122.37699890136719 358.95599365234375 206.141 408.769 255.99200439453125 269.3739929199219"/>
    <polygon style="fill-rule: nonzero; stroke: rgb(255, 255, 255); fill: rgb(119, 119, 119);" points="347.4219970703125 127.7229995727539 172.132 219.641 255.99200439453125 269.4020080566406 438.84600830078125 174.9199981689453"/>
    <path style="fill: rgb(216, 216, 216); stroke: rgb(255, 255, 255);" d="M 360.83 125.405 L 334.097 224.585" transform="matrix(1.04862, -0.351934, 0.283018, 0.858649, -66.420281, 147.020052)"/>
    <path style="fill: rgb(41, 41, 41); stroke: rgb(255, 255, 255); white-space: pre;"/>
  </g>
  <g transform="matrix(-1.179248, -0.82572, -0.82572, 1.179248, 761.958397, 31.234277)">
    <path style="fill:#2D2E30;" d="M 285.505 214.145 C 286.718 212.932 287.231 211.184 286.868 209.506 C 286.504 207.83 285.313 206.452 283.706 205.851 L 246.246 191.823 L 238.469 199.601 L 269.259 230.392 L 285.505 214.145 Z" transform="matrix(0, -1, 1, 0, 51.618215, 473.833195)"/>
    <path style="fill: url(#gradient-1); fill-opacity: 0.9;" transform="matrix(-1, 0, 0, -1, 325.748991, 681.105006)" d="M 169.446 398.097 L 133.859 415.664 L 87.763 369.569 L 104.669 340.127 L 169.446 398.097 Z"/>
    <path style="fill: rgb(119, 119, 119); stroke: rgb(255, 255, 255);" d="M 321.2 214.982 L 231.34 304.842 C 226.677 309.505 219.115 309.505 214.454 304.842 L 198.36 288.75 C 193.698 284.087 193.698 276.525 198.36 271.861 L 288.22 182.002 L 321.2 214.982 Z" transform="matrix(-1, 0, 0, -1, 516.063478, 490.341247)"/>
    <path style="fill: rgb(247, 220, 77); stroke: rgb(255, 255, 255);" d="M 239.729 308.366 C 243.364 303.135 245.501 296.785 245.501 289.932 C 245.501 272.067 231.019 257.585 213.155 257.585 C 206.302 257.585 199.951 259.722 194.72 263.358 C 209.723 278.361 224.726 293.364 239.729 308.366 Z" transform="matrix(-1, 0, 0, -1, 440.220997, 565.950978)"/>
    <path style="stroke: rgb(255, 255, 255); fill: rgb(41, 41, 41);" d="M 265.877 283.155 L 256.702 292.331 C 254.204 294.829 250.153 294.829 247.654 292.331 L 210.755 255.432 C 208.257 252.933 208.257 248.883 210.755 246.384 L 219.931 237.208 C 222.429 234.71 226.48 234.71 228.978 237.208 L 265.878 274.108 C 268.376 276.606 268.376 280.656 265.877 283.155 Z" transform="matrix(-1, 0, 0, -1, 476.632848, 529.539)"/>
    <path style="fill: rgb(41, 41, 41); stroke: rgb(255, 255, 255);" d="M 260.311 299.757 L 248.932 311.136 C 245.834 314.234 240.81 314.234 237.712 311.136 L 191.95 265.374 C 188.852 262.276 188.852 257.253 191.95 254.154 L 203.329 242.775 C 206.427 239.677 211.451 239.677 214.55 242.775 L 260.311 288.536 C 263.409 291.635 263.409 296.658 260.311 299.757 Z" transform="matrix(-1, 0, 0, -1, 452.260963, 553.911013)"/>
  </g>
  <g>
    <g transform="matrix(1.860358, -0.233867, 0, 1.860358, -222.911133, -176.513916)" style="">
      <ellipse style="stroke-width: 4px; fill: none; stroke: rgb(249, 237, 178);" cx="260" cy="355" rx="10" ry="10"/>
      <ellipse style="stroke-width: 4px; fill: none; stroke: rgb(249, 237, 178);" cx="260" cy="295" rx="10" ry="10"/>
      <ellipse style="stroke-width: 4px; fill: none; stroke: rgb(249, 237, 178);" cx="310" cy="370" rx="10" ry="10"/>
      <ellipse style="stroke-width: 4px; fill: none; stroke: rgb(249, 237, 178);" cx="310" cy="340" rx="10" ry="10"/>
      <ellipse style="stroke-width: 4px; fill: none; stroke: rgb(249, 237, 178);" cx="310" cy="310" rx="10" ry="10"/>
      <ellipse style="stroke-width: 4px; fill: none; stroke: rgb(249, 237, 178);" cx="310" cy="280" rx="10" ry="10"/>
      <ellipse style="fill: none; stroke-width: 4px; stroke: rgb(249, 237, 178);" cx="360" cy="325" rx="10" ry="10"/>
      <path style="fill: none; stroke-width: 2px; stroke: rgb(249, 237, 178);" d="M 319 280 L 349 325 L 319 310"/>
      <path style="fill: none; stroke-width: 2px; stroke: rgb(249, 237, 178);" d="M 320 371 L 350 325 L 320 341"/>
      <path style="fill: none; stroke-width: 2px; stroke: rgb(249, 237, 178);" d="M 298.966 280 L 270 295 L 298.966 310"/>
      <path style="fill: none; stroke-width: 2px; stroke: rgb(249, 237, 178);" d="M 300 340 L 271.034 355 L 300 370"/>
      <path style="fill: none; stroke-width: 2px; stroke: rgb(249, 237, 178);" d="M 298.966 340 L 270 295 L 298.966 370"/>
      <path style="fill: none; stroke-width: 2px; stroke: rgb(249, 237, 178);" d="M 298.966 310 L 270 355 L 298.966 280"/>
    </g>
  </g>
</svg>