<?xml version="1.0" encoding="utf-8"?>
<svg viewBox="0 0 500 500" xmlns="http://www.w3.org/2000/svg">
  <defs>
    <radialGradient gradientUnits="userSpaceOnUse" cx="421.789" cy="159.289" r="133.357" id="gradient-2" gradientTransform="matrix(-0.112703, -0.592595, 0.670932, -0.617295, 168.710926, 618.813474)">
      <stop offset="0" style="stop-color: rgb(249, 237, 178);"/>
      <stop offset="1" style="stop-color: rgb(119, 119, 119);"/>
    </radialGradient>
    <linearGradient gradientUnits="userSpaceOnUse" x1="162.874" y1="265.441" x2="162.874" y2="415.664" id="gradient-1" gradientTransform="matrix(0.591193, 0.806531, -0.610357, 0.447397, 267.394146, 71.597699)">
      <stop offset="0" style="stop-color: rgb(119, 119, 119);"/>
      <stop offset="1" style="stop-color: rgb(249, 237, 178);"/>
    </linearGradient>
  </defs>
  <g id="SVGRepo_iconCarrier" transform="matrix(1.18019, 0.372469, 0, 1.109803, -140.100651, -167.369268)" style="">
    <polygon style="fill: rgb(41, 41, 41); stroke: rgb(255, 255, 255);" points="172.132 219.641 172.1320037841797 407.11199951171875 255.9429931640625 469.3429870605469 438.8429870605469 374.3429870605469 438.7969970703125 194.34300231933594"/>
    <polygon style="fill: rgb(41, 41, 41); stroke: rgb(255, 255, 255);" points="255.992 469.326 438.892 374.326 438.42 173.156 255.992 194.326"/>
    <polygon style="stroke: rgb(255, 255, 255); fill: rgb(119, 119, 119);" points="172.1320037841797 219.64100646972656 122.37699890136719 358.95599365234375 206.141 408.769 255.99200439453125 269.3739929199219"/>
    <polygon style="fill-rule: nonzero; stroke: rgb(255, 255, 255); fill: url(#gradient-2);" points="347.4219970703125 127.7229995727539 172.132 219.641 255.99200439453125 269.4020080566406 438.84600830078125 174.9199981689453"/>
    <path style="fill: rgb(41, 41, 41); stroke: rgb(255, 255, 255); white-space: pre;"/>
  </g>
  <path style="fill: rgb(216, 216, 216); stroke: rgb(255, 255, 255);" d="M 269.951 103.778 L 269.996 208.744"/>
  <g style="" transform="matrix(0.804414, -0.133755, 0, 0.746372, 41.957292, 50.151887)">
    <path d="M 293.635 316.926 C 293.635 299.22 274.468 288.155 259.135 297.008 C 248.581 303.101 244.612 316.368 250.085 327.256 C 247.333 325.723 244.235 324.921 241.085 324.926 C 230.085 324.926 221.085 334.776 221.085 346.926 C 221.04 352.633 223.109 358.154 226.895 362.426 C 225.498 362.1 224.069 361.932 222.635 361.926 C 209.935 361.926 199.635 374.466 199.635 389.926 C 199.635 405.386 209.935 417.926 222.635 417.926 C 224.086 417.923 225.532 417.755 226.945 417.426 C 223.159 421.697 221.09 427.218 221.135 432.926 C 221.135 445.076 230.135 454.926 241.135 454.926 C 244.285 454.93 247.383 454.128 250.135 452.596 C 242.108 468.377 254.174 486.93 271.855 485.991 C 284.104 485.341 293.687 475.192 293.635 462.926 C 293.635 462.586 293.635 462.256 293.635 461.926 L 293.635 317.926 C 293.635 317.596 293.635 317.266 293.635 316.926 Z" fill="none" stroke-linejoin="bevel" stroke-width="8" style="stroke: rgb(255, 255, 255);"/>
    <path d="M 254.895 479.186 C 267.416 491.706 288.796 485.978 293.378 468.874 C 295.505 460.936 293.236 452.466 287.425 446.656 L 274.535 446.656" fill="none" stroke-miterlimit="10" stroke-width="8" style="stroke: rgb(255, 255, 255);"/>
    <path d="M 253.895 300.666 C 266.548 288.28 287.863 294.237 292.262 311.387 C 294.26 319.174 292.047 327.439 286.425 333.186 L 275.305 333.186" fill="none" stroke-miterlimit="10" stroke-width="8" style="stroke: rgb(255, 255, 255);"/>
    <polyline points="293.635 384.926 268.635 384.926 236.885 414.686" fill="none" stroke-miterlimit="10" stroke-width="8" style="stroke: rgb(255, 255, 255);"/>
    <line x1="232.605" y1="376.576" x2="250.085" y2="401.366" fill="none" stroke-miterlimit="10" stroke-width="8" style="stroke: rgb(255, 255, 255);"/>
    <line x1="250.085" y1="452.596" x2="262.135" y2="435.926" fill="none" stroke-miterlimit="10" stroke-width="8" style="stroke: rgb(255, 255, 255);"/>
    <polyline points="250.085 327.416 258.635 340.926 258.635 360.926" fill="none" stroke-miterlimit="10" stroke-width="8" style="stroke: rgb(255, 255, 255);"/>
    <line x1="339.635" y1="389.926" x2="291.635" y2="389.926" fill="none" stroke-miterlimit="10" stroke-width="8" style="stroke: rgb(255, 255, 255);"/>
    <polyline points="294.635 420.926 318.635 420.926 330.635 442.596" fill="none" stroke-miterlimit="10" stroke-width="8" style="stroke: rgb(255, 255, 255);"/>
    <polyline points="294.635 359.926 318.635 359.926 330.635 338.256" fill="none" stroke-miterlimit="10" stroke-width="8" style="stroke: rgb(255, 255, 255);"/>
    <circle cx="358.635" cy="389.926" r="16" fill="none" stroke-miterlimit="10" stroke-width="8" style="stroke: rgb(255, 255, 255);"/>
    <circle cx="336.635" cy="459.926" r="16" fill="none" stroke-miterlimit="10" stroke-width="8" style="stroke: rgb(255, 255, 255);"/>
    <circle cx="336.635" cy="319.926" r="16" fill="none" stroke-miterlimit="10" stroke-width="8" style="stroke: rgb(255, 255, 255);"/>
  </g>
  <path d="M 279.127 432.444 L 279.127 410.037 L 285.898 410.037 L 289.964 425.321 L 293.984 410.037 L 300.77 410.037 L 300.77 432.444 L 296.567 432.444 L 296.567 414.806 L 292.119 432.444 L 287.763 432.444 L 283.331 414.806 L 283.331 432.444 Z M 305.385 432.444 L 305.385 410.22 L 309.909 410.22 L 309.909 428.669 L 321.159 428.669 L 321.159 432.444 Z M 332.453 432.444 L 332.453 410.037 L 339.224 410.037 L 343.29 425.321 L 347.309 410.037 L 354.096 410.037 L 354.096 432.444 L 349.893 432.444 L 349.893 414.806 L 345.445 432.444 L 341.089 432.444 L 336.656 414.806 L 336.656 432.444 Z M 357.672 421.378 Q 357.672 417.954 358.696 415.631 Q 359.46 413.919 360.782 412.559 Q 362.104 411.199 363.678 410.541 Q 365.772 409.655 368.508 409.655 Q 373.46 409.655 376.433 412.727 Q 379.406 415.799 379.406 421.271 Q 379.406 426.697 376.456 429.762 Q 373.506 432.826 368.569 432.826 Q 363.571 432.826 360.621 429.777 Q 357.672 426.728 357.672 421.378 Z M 362.333 421.225 Q 362.333 425.031 364.091 426.995 Q 365.849 428.959 368.554 428.959 Q 371.259 428.959 372.994 427.01 Q 374.729 425.062 374.729 421.164 Q 374.729 417.312 373.04 415.417 Q 371.351 413.522 368.554 413.522 Q 365.757 413.522 364.045 415.44 Q 362.333 417.358 362.333 421.225 Z M 382.918 410.037 L 391.187 410.037 Q 393.984 410.037 395.452 410.465 Q 397.423 411.046 398.83 412.528 Q 400.236 414.011 400.969 416.158 Q 401.703 418.306 401.703 421.454 Q 401.703 424.221 401.015 426.223 Q 400.175 428.669 398.616 430.182 Q 397.439 431.328 395.436 431.97 Q 393.939 432.444 391.432 432.444 L 382.918 432.444 Z M 387.443 413.827 L 387.443 428.669 L 390.82 428.669 Q 392.716 428.669 393.556 428.455 Q 394.657 428.18 395.383 427.522 Q 396.109 426.865 396.567 425.36 Q 397.026 423.854 397.026 421.256 Q 397.026 418.657 396.567 417.267 Q 396.109 415.876 395.284 415.096 Q 394.458 414.317 393.19 414.041 Q 392.242 413.827 389.475 413.827 Z M 405.54 432.444 L 405.54 410.037 L 422.155 410.037 L 422.155 413.827 L 410.065 413.827 L 410.065 418.795 L 421.314 418.795 L 421.314 422.57 L 410.065 422.57 L 410.065 428.669 L 422.583 428.669 L 422.583 432.444 Z M 426.54 432.444 L 426.54 410.22 L 431.064 410.22 L 431.064 428.669 L 442.314 428.669 L 442.314 432.444 Z" transform="matrix(1.221822, -0.202367, -0.008893, 1.132115, -166.001801, 3.942153)" style="fill: rgb(255, 255, 255); line-height: 35.3815px; white-space: pre;"/>
  <g transform="matrix(0.90758, 0.404082, -0.404082, 0.90758, 270.149544, -221.365867)">
    <path style="fill: url(#gradient-1); fill-opacity: 0.85;" transform="matrix(-1, 0, 0, -1, 325.748991, 681.105006)" d="M 230.084 348.985 L 133.859 415.664 L 87.763 369.569 L 168.881 274.106 L 230.084 348.985 Z"/>
    <path style="fill: rgb(41, 41, 41);" d="M 293.377 204.179 C 294.797 205.599 295.398 207.645 294.973 209.608 C 294.547 211.571 293.153 213.184 291.272 213.889 L 247.42 230.309 L 238.316 221.205 L 274.359 185.161 L 293.377 204.179 Z" transform="matrix(-1, 0, 0, -1, 533.422949, 415.469997)"/>
    <path style="fill: rgb(119, 119, 119); stroke: rgb(255, 255, 255);" d="M 337.763 202.23 L 237.198 302.795 C 231.98 308.013 223.519 308.013 218.301 302.795 L 200.29 284.784 C 195.072 279.566 195.072 271.105 200.29 265.887 L 300.855 165.322 L 337.763 202.23 Z" transform="matrix(-1, 0, 0, -1, 534.139479, 472.030505)"/>
    <path style="fill: rgb(247, 220, 77); stroke: rgb(255, 255, 255);" d="M 239.729 308.366 C 243.364 303.135 245.501 296.785 245.501 289.932 C 245.501 272.067 231.019 257.585 213.155 257.585 C 206.302 257.585 199.951 259.722 194.72 263.358 C 209.723 278.361 224.726 293.364 239.729 308.366 Z" transform="matrix(-1, 0, 0, -1, 440.220997, 565.950978)"/>
    <path style="fill: rgb(41, 41, 41); stroke: rgb(255, 255, 255);" d="M 265.877 283.155 L 256.702 292.331 C 254.204 294.829 250.153 294.829 247.654 292.331 L 210.755 255.432 C 208.257 252.933 208.257 248.883 210.755 246.384 L 219.931 237.208 C 222.429 234.71 226.48 234.71 228.978 237.208 L 265.878 274.108 C 268.376 276.606 268.376 280.656 265.877 283.155 Z" transform="matrix(-1, 0, 0, -1, 476.632848, 529.539)"/>
    <path style="fill: rgb(41, 41, 41); stroke: rgb(255, 255, 255);" d="M 260.311 299.757 L 248.932 311.136 C 245.834 314.234 240.81 314.234 237.712 311.136 L 191.95 265.374 C 188.852 262.276 188.852 257.253 191.95 254.154 L 203.329 242.775 C 206.427 239.677 211.451 239.677 214.55 242.775 L 260.311 288.536 C 263.409 291.635 263.409 296.658 260.311 299.757 Z" transform="matrix(-1, 0, 0, -1, 452.260963, 553.911013)"/>
  </g>
  <path d="M 461.388 82.738 L 461.388 65.558 L 464.856 65.558 L 464.856 82.738 Z M 468.113 82.738 L 468.113 65.558 L 473.304 65.558 L 476.421 77.277 L 479.504 65.558 L 484.707 65.558 L 484.707 82.738 L 481.484 82.738 L 481.484 69.215 L 478.074 82.738 L 474.734 82.738 L 471.336 69.215 L 471.336 82.738 Z M 488.243 82.738 L 488.243 65.699 L 491.712 65.699 L 491.712 79.843 L 500.337 79.843 L 500.337 82.738 Z M 507.264 83.031 L 511.518 65.265 L 513.99 65.265 L 509.69 83.031 Z M 520.632 82.738 L 526.503 73.773 L 521.183 65.558 L 525.238 65.558 L 528.683 71.078 L 532.058 65.558 L 536.078 65.558 L 530.734 73.902 L 536.605 82.738 L 532.421 82.738 L 528.613 76.797 L 524.793 82.738 Z M 553.881 82.738 L 550.108 82.738 L 548.608 78.836 L 541.74 78.836 L 540.323 82.738 L 536.643 82.738 L 543.334 65.558 L 547.002 65.558 Z M 547.494 75.941 L 545.127 69.566 L 542.807 75.941 Z M 555.617 82.738 L 555.617 65.558 L 559.086 65.558 L 559.086 82.738 Z" transform="matrix(0.933581, -0.358367, 0.358367, 0.933581, -62.03001, 205.035629)" style="fill: rgb(255, 255, 255); white-space: pre;"/>
</svg>