<?xml version="1.0" encoding="utf-8"?>
<svg viewBox="0 0 500 500" xmlns="http://www.w3.org/2000/svg">
  <defs>
    <linearGradient gradientUnits="userSpaceOnUse" x1="162.874" y1="265.441" x2="162.874" y2="415.664" id="gradient-1" gradientTransform="matrix(0.699191, 0.714936, -0.283481, 0.277239, 119.570011, 162.353378)">
      <stop offset="0" style="stop-color: rgb(119, 119, 119);"/>
      <stop offset="1" style="stop-color: rgb(249, 237, 178);"/>
    </linearGradient>
  </defs>
  <g id="SVGRepo_iconCarrier" transform="matrix(1.162565, 0.366906, 0, 1.093229, -80.847415, -117.492313)" style="">
    <polygon style="fill: rgb(41, 41, 41); stroke: rgb(255, 255, 255);" points="172.132 219.641 172.1320037841797 407.11199951171875 255.9429931640625 469.3429870605469 438.8429870605469 374.3429870605469 438.7969970703125 194.34300231933594"/>
    <polygon style="fill: rgb(41, 41, 41); stroke: rgb(255, 255, 255);" points="255.992 469.326 438.892 374.326 438.42 173.156 255.992 194.326"/>
    <polygon style="stroke: rgb(255, 255, 255); fill: rgb(119, 119, 119);" points="172.1320037841797 219.64100646972656 122.37699890136719 358.95599365234375 206.141 408.769 255.99200439453125 269.3739929199219"/>
    <polygon style="fill-rule: nonzero; stroke: rgb(255, 255, 255); fill: rgb(119, 119, 119);" points="347.4219970703125 127.7229995727539 172.132 219.641 255.99200439453125 269.4020080566406 438.84600830078125 174.9199981689453"/>
    <path style="fill: rgb(41, 41, 41); stroke: rgb(255, 255, 255); white-space: pre;"/>
  </g>
  <path style="fill: rgb(216, 216, 216); stroke: rgb(255, 255, 255);" d="M 323.08 149.604 L 323.123 253.003"/>
  <g style="" transform="matrix(0.792401, -0.131758, 0, 0.735226, 98.491618, 96.780337)">
    <path d="M 293.635 316.926 C 293.635 299.22 274.468 288.155 259.135 297.008 C 248.581 303.101 244.612 316.368 250.085 327.256 C 247.333 325.723 244.235 324.921 241.085 324.926 C 230.085 324.926 221.085 334.776 221.085 346.926 C 221.04 352.633 223.109 358.154 226.895 362.426 C 225.498 362.1 224.069 361.932 222.635 361.926 C 209.935 361.926 199.635 374.466 199.635 389.926 C 199.635 405.386 209.935 417.926 222.635 417.926 C 224.086 417.923 225.532 417.755 226.945 417.426 C 223.159 421.697 221.09 427.218 221.135 432.926 C 221.135 445.076 230.135 454.926 241.135 454.926 C 244.285 454.93 247.383 454.128 250.135 452.596 C 242.108 468.377 254.174 486.93 271.855 485.991 C 284.104 485.341 293.687 475.192 293.635 462.926 C 293.635 462.586 293.635 462.256 293.635 461.926 L 293.635 317.926 C 293.635 317.596 293.635 317.266 293.635 316.926 Z" fill="none" stroke-linejoin="bevel" stroke-width="8" style="stroke: rgb(255, 255, 255);"/>
    <path d="M 254.895 479.186 C 267.416 491.706 288.796 485.978 293.378 468.874 C 295.505 460.936 293.236 452.466 287.425 446.656 L 274.535 446.656" fill="none" stroke-miterlimit="10" stroke-width="8" style="stroke: rgb(255, 255, 255);"/>
    <path d="M 253.895 300.666 C 266.548 288.28 287.863 294.237 292.262 311.387 C 294.26 319.174 292.047 327.439 286.425 333.186 L 275.305 333.186" fill="none" stroke-miterlimit="10" stroke-width="8" style="stroke: rgb(255, 255, 255);"/>
    <polyline points="293.635 384.926 268.635 384.926 236.885 414.686" fill="none" stroke-miterlimit="10" stroke-width="8" style="stroke: rgb(255, 255, 255);"/>
    <line x1="232.605" y1="376.576" x2="250.085" y2="401.366" fill="none" stroke-miterlimit="10" stroke-width="8" style="stroke: rgb(255, 255, 255);"/>
    <line x1="250.085" y1="452.596" x2="262.135" y2="435.926" fill="none" stroke-miterlimit="10" stroke-width="8" style="stroke: rgb(255, 255, 255);"/>
    <polyline points="250.085 327.416 258.635 340.926 258.635 360.926" fill="none" stroke-miterlimit="10" stroke-width="8" style="stroke: rgb(255, 255, 255);"/>
    <line x1="339.635" y1="389.926" x2="291.635" y2="389.926" fill="none" stroke-miterlimit="10" stroke-width="8" style="stroke: rgb(255, 255, 255);"/>
    <polyline points="294.635 420.926 318.635 420.926 330.635 442.596" fill="none" stroke-miterlimit="10" stroke-width="8" style="stroke: rgb(255, 255, 255);"/>
    <polyline points="294.635 359.926 318.635 359.926 330.635 338.256" fill="none" stroke-miterlimit="10" stroke-width="8" style="stroke: rgb(255, 255, 255);"/>
    <circle cx="358.635" cy="389.926" r="16" fill="none" stroke-miterlimit="10" stroke-width="8" style="stroke: rgb(255, 255, 255);"/>
    <circle cx="336.635" cy="459.926" r="16" fill="none" stroke-miterlimit="10" stroke-width="8" style="stroke: rgb(255, 255, 255);"/>
    <circle cx="336.635" cy="319.926" r="16" fill="none" stroke-miterlimit="10" stroke-width="8" style="stroke: rgb(255, 255, 255);"/>
  </g>
  <path d="M 279.127 432.444 L 279.127 410.037 L 285.898 410.037 L 289.964 425.321 L 293.984 410.037 L 300.77 410.037 L 300.77 432.444 L 296.567 432.444 L 296.567 414.806 L 292.119 432.444 L 287.763 432.444 L 283.331 414.806 L 283.331 432.444 Z M 305.379 432.444 L 305.379 410.22 L 309.904 410.22 L 309.904 428.669 L 321.153 428.669 L 321.153 432.444 Z M 332.441 432.444 L 332.441 410.037 L 339.212 410.037 L 343.278 425.321 L 347.298 410.037 L 354.084 410.037 L 354.084 432.444 L 349.881 432.444 L 349.881 414.806 L 345.433 432.444 L 341.077 432.444 L 336.645 414.806 L 336.645 432.444 Z M 357.654 421.378 Q 357.654 417.954 358.678 415.631 Q 359.443 413.919 360.765 412.559 Q 362.087 411.199 363.661 410.541 Q 365.755 409.655 368.491 409.655 Q 373.443 409.655 376.416 412.727 Q 379.389 415.799 379.389 421.271 Q 379.389 426.697 376.439 429.762 Q 373.489 432.826 368.552 432.826 Q 363.554 432.826 360.604 429.777 Q 357.654 426.728 357.654 421.378 Z M 362.316 421.225 Q 362.316 425.031 364.074 426.995 Q 365.831 428.959 368.537 428.959 Q 371.242 428.959 372.977 427.01 Q 374.712 425.062 374.712 421.164 Q 374.712 417.312 373.023 415.417 Q 371.334 413.522 368.537 413.522 Q 365.74 413.522 364.028 415.44 Q 362.316 417.358 362.316 421.225 Z M 382.905 410.037 L 391.174 410.037 Q 393.971 410.037 395.438 410.465 Q 397.41 411.046 398.816 412.528 Q 400.222 414.011 400.956 416.158 Q 401.689 418.306 401.689 421.454 Q 401.689 424.221 401.002 426.223 Q 400.161 428.669 398.602 430.182 Q 397.425 431.328 395.423 431.97 Q 393.925 432.444 391.418 432.444 L 382.905 432.444 Z M 387.429 413.827 L 387.429 428.669 L 390.807 428.669 Q 392.702 428.669 393.543 428.455 Q 394.643 428.18 395.369 427.522 Q 396.095 426.865 396.554 425.36 Q 397.012 423.854 397.012 421.256 Q 397.012 418.657 396.554 417.266 Q 396.095 415.876 395.27 415.096 Q 394.445 414.317 393.176 414.041 Q 392.228 413.827 389.462 413.827 Z M 405.522 432.444 L 405.522 410.037 L 422.136 410.037 L 422.136 413.827 L 410.046 413.827 L 410.046 418.795 L 421.296 418.795 L 421.296 422.57 L 410.046 422.57 L 410.046 428.669 L 422.564 428.669 L 422.564 432.444 Z M 426.517 432.444 L 426.517 410.22 L 431.041 410.22 L 431.041 428.669 L 442.291 428.669 L 442.291 432.444 Z" transform="matrix(1.203575, -0.199345, -0.008761, 1.115208, -106.361763, 51.260708)" style="fill: rgb(255, 255, 255); line-height: 35.3815px; white-space: pre;"/>
  <path style="fill:#2D2E30;" d="M 287.036 58.849 C 288.536 60.349 289.171 62.511 288.722 64.586 C 288.272 66.659 286.799 68.363 284.812 69.107 L 238.482 86.456 L 228.864 76.837 L 266.944 38.756 L 287.036 58.849 Z" transform="matrix(0.573576, -0.819152, 0.819152, 0.573576, 59.101812, 238.745506)"/>
  <g transform="matrix(-1.013096, -0.709377, -0.709377, 1.013096, 674.784688, 35.105531)">
    <path style="fill: url(#gradient-1); fill-opacity: 0.85;" transform="matrix(-1, 0, 0, -1, 325.748991, 681.105006)" d="M 185.915 378.356 L 133.859 415.664 L 87.763 369.569 L 125.498 313.816 L 185.915 378.356 Z"/>
    <path style="fill: rgb(119, 119, 119); stroke: rgb(255, 255, 255);" d="M 321.2 214.982 L 231.34 304.842 C 226.677 309.505 219.115 309.505 214.454 304.842 L 198.36 288.75 C 193.698 284.087 193.698 276.525 198.36 271.861 L 288.22 182.002 L 321.2 214.982 Z" transform="matrix(-1, 0, 0, -1, 516.063478, 490.341247)"/>
    <path style="fill: rgb(247, 220, 77); stroke: rgb(255, 255, 255);" d="M 239.729 308.366 C 243.364 303.135 245.501 296.785 245.501 289.932 C 245.501 272.067 231.019 257.585 213.155 257.585 C 206.302 257.585 199.951 259.722 194.72 263.358 C 209.723 278.361 224.726 293.364 239.729 308.366 Z" transform="matrix(-1, 0, 0, -1, 440.220997, 565.950978)"/>
    <path style="stroke: rgb(255, 255, 255); fill: rgb(41, 41, 41);" d="M 265.877 283.155 L 256.702 292.331 C 254.204 294.829 250.153 294.829 247.654 292.331 L 210.755 255.432 C 208.257 252.933 208.257 248.883 210.755 246.384 L 219.931 237.208 C 222.429 234.71 226.48 234.71 228.978 237.208 L 265.878 274.108 C 268.376 276.606 268.376 280.656 265.877 283.155 Z" transform="matrix(-1, 0, 0, -1, 476.632848, 529.539)"/>
    <path style="fill: rgb(41, 41, 41); stroke: rgb(255, 255, 255);" d="M 260.311 299.757 L 248.932 311.136 C 245.834 314.234 240.81 314.234 237.712 311.136 L 191.95 265.374 C 188.852 262.276 188.852 257.253 191.95 254.154 L 203.329 242.775 C 206.427 239.677 211.451 239.677 214.55 242.775 L 260.311 288.536 C 263.409 291.635 263.409 296.658 260.311 299.757 Z" transform="matrix(-1, 0, 0, -1, 452.260963, 553.911013)"/>
  </g>
  <path d="M -451.262 -81.503 L -451.262 -98.468 L -447.837 -98.468 L -447.837 -81.503 Z M -444.621 -81.503 L -444.621 -98.468 L -439.494 -98.468 L -436.416 -86.896 L -433.372 -98.468 L -428.234 -98.468 L -428.234 -81.503 L -431.417 -81.503 L -431.417 -94.857 L -434.784 -81.503 L -438.082 -81.503 L -441.438 -94.857 L -441.438 -81.503 Z M -424.742 -81.503 L -424.742 -98.329 L -421.317 -98.329 L -421.317 -84.361 L -412.8 -84.361 L -412.8 -81.503 Z M -405.958 -81.214 L -401.758 -98.757 L -399.316 -98.757 L -403.563 -81.214 Z M -392.757 -81.503 L -386.959 -90.356 L -392.213 -98.468 L -388.209 -98.468 L -384.807 -93.017 L -381.474 -98.468 L -377.505 -98.468 L -382.782 -90.228 L -376.984 -81.503 L -381.115 -81.503 L -384.876 -87.37 L -388.649 -81.503 Z M -359.932 -81.503 L -363.658 -81.503 L -365.14 -85.357 L -371.921 -85.357 L -373.321 -81.503 L -376.955 -81.503 L -370.347 -98.468 L -366.725 -98.468 Z M -366.239 -88.215 L -368.577 -94.51 L -370.868 -88.215 Z M -358.21 -81.503 L -358.21 -98.468 L -354.784 -98.468 L -354.784 -81.503 Z" transform="matrix(0.866025, 0.500001, -0.500001, 0.866025, 416.562103, 399.758789)" style="fill: rgb(255, 255, 255); white-space: pre;"/>
  <path d="M 194.902 185.97 L 204.932 170.655 L 195.843 156.621 L 202.77 156.621 L 208.655 166.051 L 214.421 156.621 L 221.288 156.621 L 212.159 170.875 L 222.189 185.97 L 215.042 185.97 L 208.535 175.82 L 202.009 185.97 Z M 251.694 185.97 L 245.248 185.97 L 242.686 179.303 L 230.954 179.303 L 228.532 185.97 L 222.246 185.97 L 233.677 156.621 L 239.943 156.621 Z M 240.784 174.359 L 236.74 163.468 L 232.776 174.359 Z M 254.653 185.97 L 254.653 156.621 L 260.578 156.621 L 260.578 185.97 Z" transform="matrix(0.984808, -0.173648, 0.173648, 0.984808, -5.710745, 26.904064)" style="fill: rgb(255, 255, 255); white-space: pre;"/>
</svg>