<!DOCTYPE svg PUBLIC "-//W3C//DTD SVG 1.1//EN" "http://www.w3.org/Graphics/SVG/1.1/DTD/svg11.dtd">
<!-- Uploaded to: SVG Repo, www.svgrepo.com, Transformed by: SVG Repo Mixer Tools -->
<svg height="256px" width="256px" version="1.1" id="Layer_1" xmlns="http://www.w3.org/2000/svg" xmlns:xlink="http://www.w3.org/1999/xlink" viewBox="-51.2 -51.2 614.40 614.40" xml:space="preserve" fill="#000000" stroke="#000000" stroke-width="0.5120009999999999" transform="matrix(1, 0, 0, 1, 0, 0)rotate(0)">
<g id="SVGRepo_bgCarrier" stroke-width="0"/>
<g id="SVGRepo_tracerCarrier" stroke-linecap="round" stroke-linejoin="round" stroke="#CCCCCC" stroke-width="3.0720059999999996"/>
<g id="SVGRepo_iconCarrier"> <path style="fill:#32BBFF;" d="M247.424,509.62L80.48,409.445c-5.054-3-8.12-8.446-8.12-14.315V290.51 c0-13.073,14.335-20.96,25.272-14.315l89.01,53.381l57.555-57.555c6.521-6.521,17.088-6.521,23.609,0l57.555,57.555l89.022-53.381 c11.074-6.686,25.272,1.327,25.272,14.315v104.62c0,5.869-3.065,11.315-8.12,14.315L264.576,509.62 C259.351,512.781,252.692,512.808,247.424,509.62z"/> <path style="fill:#2C9FD9;" d="M264.576,509.62l166.958-100.175c5.054-3,8.12-8.446,8.12-14.315V290.51 c0-12.988-14.199-21.002-25.272-14.315l-89.022,53.381l-57.555-57.555c-3.261-3.261-7.533-4.892-11.804-4.892v244.867 C258.982,511.994,261.96,511.204,264.576,509.62z"/> <path style="fill:#E6F4FF;" d="M256,300.521c-2.967,0-5.935-0.782-8.576-2.381L80.466,197.965c-10.817-6.42-10.817-22.21,0-28.631 L247.424,69.159c5.283-3.196,11.87-3.196,17.152,0l166.958,100.175c10.817,6.42,10.817,22.21,0,28.631L264.576,298.14 C261.935,299.738,258.968,300.521,256,300.521z"/> <path style="fill:#CFDBE6;" d="M264.576,298.14l166.958-100.175c10.816-6.422,10.816-22.211,0-28.631L264.576,69.159 c-2.641-1.598-5.609-2.396-8.576-2.396v233.758C258.968,300.521,261.935,299.738,264.576,298.14z"/> <path style="fill:#59C8FF;" d="M446.567,183.65l54.979-54.979c7.555-7.489,6.224-20.49-3.228-26.12L331.361,2.376 c-6.457-3.913-14.935-2.935-20.381,2.511L256,59.866L201.021,4.887c-5.478-5.446-13.924-6.423-20.381-2.511L13.682,102.551 c-9.452,5.63-10.784,18.631-3.228,26.12l54.979,54.979l-54.979,54.978c-7.555,7.489-6.224,20.49,3.228,26.12L180.64,364.923 c6.43,3.89,14.885,2.985,20.381-2.511L256,307.433l54.979,54.979c5.496,5.496,13.95,6.401,20.381,2.511l166.958-100.175 c9.452-5.63,10.784-18.631,3.228-26.12L446.567,183.65z M256,264.363L121.478,183.65L256,102.936l134.522,80.713L256,264.363z"/> <path style="fill:#19B2FF;" d="M390.523,183.65L256,264.363v43.071l54.979,54.979c5.496,5.495,13.951,6.4,20.381,2.511 l166.958-100.175c9.452-5.631,10.783-18.633,3.228-26.12l-54.979-54.979l54.979-54.979c7.555-7.49,6.224-20.49-3.228-26.12 L331.361,2.376c-6.457-3.913-14.935-2.935-20.381,2.511L256,59.866v43.07L390.523,183.65z"/> </g>
</svg>